<svg width="80" height="80" viewBox="0 0 80 80" fill="none" xmlns="http://www.w3.org/2000/svg">
<circle cx="40" cy="40" r="40" fill="#CAE9FF"/>
<path d="M29.25 48.3216C29.6662 53.01 33.5053 56.3372 39.3497 56.7675V60.1875H42.2831V56.7675C48.6675 56.2641 52.6275 52.7231 52.6275 47.4862C52.6275 43.0144 49.9641 40.4269 44.3138 38.97L42.2831 38.4441V27.7509C45.4387 28.0603 47.5678 29.7591 48.105 32.2959H52.2394C51.7725 27.7959 47.9081 24.5672 42.2831 24.21V20.8125H39.3497V24.2803C33.8963 24.9272 30.1528 28.4203 30.1528 33.1566C30.1528 37.2459 32.8697 40.14 37.6369 41.3606L39.3525 41.8163V53.1534C36.1209 52.6753 33.8962 50.9034 33.3591 48.3216H29.25ZM38.7872 37.5328C35.8537 36.7931 34.2872 35.2125 34.2872 32.9878C34.2872 30.3328 36.2672 28.3725 39.3497 27.8466V37.6762L38.7872 37.5356V37.5328ZM43.2619 42.7978C46.8816 43.7063 48.4706 45.2138 48.4706 47.7731C48.4706 50.8584 46.1475 52.9144 42.2831 53.2266V42.5531L43.2619 42.795V42.7978Z" fill="#1B4965"/>
</svg>
