<svg width="576" height="433" viewBox="0 0 576 433" fill="none" xmlns="http://www.w3.org/2000/svg">
<path fill-rule="evenodd" clip-rule="evenodd" d="M160.694 318.765C163.235 321.704 166.987 323.885 169.866 326.571C172.889 329.393 176.17 331.859 179.181 334.647C192.464 318.413 210.659 308.458 226.422 294.987C233.895 288.6 239.401 279.937 243.43 271.046C245.496 266.488 247.022 261.796 248.216 256.941C248.754 254.754 249.28 252.574 249.631 250.357C250.057 247.673 250.167 247.444 251.978 245.348C252.758 244.447 254.268 241.812 255.796 242.102C257.081 242.347 259.432 246.259 260.244 247.225C264.15 251.873 267.937 256.663 272.049 261.13C278.341 267.967 284.069 274.695 289.91 281.941C301.86 296.765 314.75 310.72 327.757 324.67C328.722 325.704 330.971 328.738 332.357 329.146C334.043 329.641 336.782 327.574 338.479 326.419C342.575 323.63 345.804 320.178 349.306 316.721C356.14 309.976 360.768 300.507 363.881 291.498C365.744 286.105 366.956 280.515 368.879 275.141C369.68 272.901 371.497 270.148 370.575 268.198C370.3 267.616 368.552 266.071 367.936 265.953C367.207 265.813 365.991 266.812 365.738 266.743C363.319 266.081 364.661 263.549 363.222 262.187C362.407 261.414 358.258 261.527 357.02 261.102C352.491 259.549 348.428 256.585 344.147 254.816C326.224 247.412 308.083 240.209 292.61 228.117C288.597 224.981 285.931 222.625 281.143 220.598C276.304 218.55 271.44 216.723 266.503 214.936C262.147 213.36 257.768 211.881 253.268 210.751C248.402 209.529 241.5 207.979 236.638 209.554C227.091 212.645 224.008 220.511 220.206 228.81C215.062 240.037 208.842 250.662 202.099 260.996C189.128 280.879 173.352 298.721 160.694 318.765Z" fill="#1B4965"/>
<path fill-rule="evenodd" clip-rule="evenodd" d="M448.222 142.985C448.748 142.719 452.85 144.388 453.538 144.644C456.288 145.664 458.878 147.359 461.469 148.739C459.484 151.155 457.498 153.572 455.512 155.989C453.566 151.215 451.065 147.276 448.222 142.985ZM446.869 172.688C447.544 172.764 441.84 186.471 441.174 188.01C438.751 193.607 436.206 199.15 433.75 204.733C431.371 210.144 428.352 215.122 425.311 220.176C422.71 224.499 420.035 231.207 416.112 234.409C418.589 223.419 418.263 210.782 425.368 201.555C432.733 191.988 440.016 182.647 446.869 172.688ZM160.694 319.253C171.701 301.824 185.479 286.405 196.956 269.287C203.383 259.702 209.638 249.995 215.047 239.792C218.982 232.371 221.428 221.782 227.505 216.108C230.183 213.608 233.044 211.161 236.638 210.041C241.556 208.509 248.327 210.028 253.268 211.239C262.474 213.496 271.468 217.002 280.189 220.684C289.034 224.417 296.58 231.125 304.572 236.513C313.145 242.295 322.426 246.506 332.031 250.193C340.394 253.403 347.834 258.012 356.153 261.243C357.811 261.887 361.194 261.792 362.584 262.632C364.083 263.536 363.493 266.206 365.312 267.19C366.132 267.635 366.406 266.024 367.036 266.05C367.806 266.082 368.509 266.987 369.251 267.559C372.275 269.892 370.423 271.447 369.226 274.657C365.323 285.115 363.226 295.755 357.748 305.628C353.243 313.744 346.796 321.016 339.206 326.388C338.051 327.206 334.288 330.374 332.932 330.163C331.712 329.974 329.23 326.731 328.387 325.85C324.565 321.853 321.072 317.553 317.252 313.549C311.349 307.363 305.666 301.01 299.938 294.738C293.288 287.458 287.403 279.209 281.413 271.43C278.658 267.851 275.111 264.937 272.049 261.618C267.931 257.157 264.15 252.36 260.243 247.713C259.062 246.307 257.082 242.71 255.246 242.752C253.959 242.782 251.689 245.812 251.016 246.762C248.514 250.291 248.525 256.666 247.281 261.072C244.245 271.815 238.77 282.309 231.261 290.599C223.795 298.844 214.23 304.707 205.399 311.334C195.832 318.514 186.768 325.861 179.181 335.135C176.17 332.347 172.889 329.881 169.866 327.059C166.987 324.372 163.235 322.192 160.694 319.253ZM302.371 368.562C300.231 368.584 296.607 369.9 294.693 369.108C300.371 362.825 305.585 357.435 312.769 352.83C320.224 348.053 327.654 343.318 334.894 338.221C349.486 327.951 360.219 315.771 366.314 298.668C367.883 294.264 368.935 289.644 370.085 285.117C370.704 282.678 371.936 271.271 374.028 270.286C375.267 269.702 384.593 276.257 386.071 277.074C389.526 278.984 392.993 280.466 396.565 281.961C404.243 285.176 412.158 287.628 420.299 289.675C430.06 292.129 436.709 288.068 442.756 280.396C449.616 271.692 455.317 261.871 461.59 252.731C464.442 248.573 466.805 244.423 468.912 239.837C470.29 236.837 475.759 228.742 473.869 225.545C468.479 229.649 466.539 237.809 462.867 243.304C458.291 250.153 453.133 256.61 448.533 263.452C444.665 269.205 440.718 276.178 435.003 280.314C429.976 283.951 425.2 282.833 419.79 281.198C413.233 279.217 406.437 278.24 400.011 275.783C393.056 273.124 386.477 269.352 379.692 266.276C376.529 264.841 372.742 264.026 369.761 262.238C367.192 260.698 367.575 259.885 367.387 256.605C367.166 252.778 366.913 248.949 366.743 245.119C366.63 242.545 368.021 239.056 367.077 237.135C374.78 238.47 382.308 240.259 389.957 241.841C394.145 242.708 398.183 243.779 402.414 244.459C404.026 244.719 406.231 244.711 407.675 245.414C408.827 245.083 409.414 245.293 409.436 246.044C409.492 246.452 409.579 246.854 409.699 247.25C412.06 248.324 413.434 246.02 415.483 243.809C418.011 241.081 419.903 238.009 421.758 234.803C425.905 227.635 430.684 220.894 434.522 213.525C438.433 206.013 441.609 197.97 444.925 190.176C447.967 183.025 449.915 175.292 453.277 168.311C454.777 165.195 456.678 162.618 458.898 159.985C460.73 157.813 463.549 153.127 466.285 152.129C467.008 151.865 468.903 152.308 469.725 152.25C471.363 152.133 472.822 151.531 474.499 151.663C478.128 151.947 482.084 154.242 484.985 156.26C483.11 157.93 478.422 159.961 481.79 162.97C485.058 165.892 486.863 160.651 488.11 158.355C493.982 163.177 493.134 169.827 493.812 176.64C494.166 180.198 495.098 183.701 495.7 187.205C496.133 189.726 495.829 192.335 495.953 194.909C496.268 201.452 496.926 207.714 496.895 214.165C496.86 221.06 496.39 227.719 495.839 234.564C494.91 246.088 492.782 257.617 490.957 269.05C489.931 275.476 488.526 281.72 487.162 288.042C485.614 295.218 482.75 302.015 481.144 309.172C479.508 307.092 478.277 307.082 475.63 307.357C473.595 307.57 472.227 307.085 472.346 309.911C472.423 311.743 474.04 313.143 475.829 313.463C478.162 313.88 478.954 312.716 480.156 310.949C480.437 314.295 478.187 317.793 477.298 321.061C476.455 324.157 475.897 327.192 474.482 330.156C473.101 333.047 471.919 335.899 470.522 338.763C469.878 340.08 469.276 341.419 468.625 342.733C468.296 343.398 467.909 344.315 467.418 344.876C466.266 346.19 466.449 345.553 465.101 346.302C462.163 347.934 463.267 347.527 463.198 350.897C463.131 354.22 461.427 356.662 458.693 358.53C452.895 362.495 447.175 363.597 440.583 365.6C434.44 367.467 427.97 369.068 421.466 369.032C413.5 368.987 405.64 367.943 397.673 367.837C388.885 367.72 380.012 367.768 371.242 368.072C367.629 368.197 364.273 368.358 360.785 369.28C356.735 370.352 352.816 369.927 348.641 369.765C339.735 369.418 330.521 368.729 321.731 368.667C315.402 368.622 308.724 368.181 302.371 368.562ZM71.415 372.015C69.8315 372.851 66.2822 372.508 64.6903 372.276C61.8863 371.867 61.5859 370.755 59.8067 368.255C56.7444 363.949 54.2582 359.825 52.4565 354.838C49.0084 345.291 47.6004 335.525 46.0868 325.539C44.4043 314.443 47.4767 302.942 48.5758 291.921C48.8284 289.393 49.1738 286.888 49.5731 284.378C49.8122 282.878 49.8746 277.774 50.8618 276.476C52.7585 273.98 61.5786 275.993 65.0464 276.219C74.7259 276.851 84.4689 276.999 94.144 277.109C99.3026 277.168 104.49 277.384 109.597 277.423C111.943 277.442 114.236 277.326 116.59 277.097C117.378 277.021 118.147 276.84 118.94 276.796C121.656 276.646 121.452 276.252 122.154 278.657C123.383 282.87 122.437 288.23 122.76 292.603C123.192 298.446 123.425 304.372 123.319 310.228C123.22 315.639 123.404 321.038 123.202 326.461C123.118 328.707 122.872 330.538 122.28 332.683C121.61 335.108 120.873 340.773 119.205 342.451C119.015 342.643 117.597 342.197 117.221 342.673C116.641 343.406 116.747 344.957 116.349 345.43C115.06 346.964 112.397 347.085 110.465 347.774C105.163 349.665 100.3 351.717 95.3032 354.267C90.8387 356.544 83.6404 358.482 80.9561 362.976C79.7254 365.036 79.5594 367.752 78.4277 369.877C77.139 372.298 79.7175 371.032 76.5602 372.015C75.1382 372.457 72.8724 372.015 71.415 372.015ZM542.09 344.633C542.491 350.224 545.641 355.549 546.737 361.046C547.25 363.62 548.12 366.15 548.723 368.709C549.301 371.164 551.391 374.071 551.179 376.499C543.468 373.752 535.658 373.061 527.599 372.321C519.961 371.618 511.892 371.338 504.318 371.335C496.6 371.331 488.347 370.577 480.4 370.46C472.089 370.338 463.653 370.123 455.462 369.261C459.745 366.089 465.104 363.11 468.267 358.697C471.705 353.899 473.49 347.888 476.515 342.826C482.586 332.667 486.445 320.06 489.627 308.647C496.051 285.606 503.23 262.99 504.961 239.09C508.254 240.777 510.868 247.319 512.516 250.577C514.621 254.737 515.722 259.246 517.09 263.667C519.907 272.773 521.857 282.215 525.306 291.235C531.899 308.477 536.136 327.055 542.09 344.633ZM123.527 210.344C122.101 220.649 119.11 231.087 118.996 241.516C118.97 243.811 119.359 246.359 118.881 248.621C118.37 251.037 116.709 253.172 115.75 255.467C114.228 259.111 110.373 266.58 114.091 269.668C114.166 266.738 116.848 263.017 118.198 260.455C120.234 256.594 122.909 253.064 125.115 249.3C129.734 241.42 134.911 233.708 140.863 226.761C146.662 219.994 153.344 213.992 159.493 207.549C161.34 205.612 176.16 186.979 176.749 187.239C172.152 204.966 164.338 220.389 153.644 235.231C148.401 242.507 142.108 247.295 135.726 253.459C130.411 258.593 120.393 264.082 122.231 272.493C113.922 271.694 105.668 270.418 97.2838 270.418C98.6625 259.806 99.7183 249.363 102.18 238.925C104.974 227.074 106.867 214.868 109.232 202.912C111.645 190.706 115.738 178.889 118.285 166.705C120.723 155.039 122.818 143.394 124.606 131.598C126.083 138.134 125.538 145.313 126.062 151.982C126.597 158.796 126.546 165.484 126.367 172.337C126.037 185.067 124.68 197.644 123.527 210.344ZM87.5233 149.651C87.4766 144.202 86.4208 138.827 86.0951 133.391C85.995 131.723 84.3339 120.344 85.8831 119.75C87.1571 122.528 87.4541 126.082 88.6112 128.997C89.7671 131.908 91.3134 134.682 92.4227 137.614C94.8257 143.965 95.6548 151.151 95.9136 157.903C96.4991 173.176 96.8017 188.415 95.7752 203.688C95.3353 210.235 94.9978 216.792 95.1182 223.351C95.2504 230.569 96.3557 236.833 95.0135 243.992C93.6849 251.08 92.8502 258.14 92.4075 265.332C92.097 270.38 91.9721 270.023 87.156 269.668C83.6792 269.411 80.1681 269.685 76.6862 269.526C78.3141 249.852 78.5801 230.137 81.1805 210.539C82.5075 200.54 82.5429 190.397 84.191 180.436C85.01 175.488 86.3842 170.639 87.174 165.685C88.0217 160.366 87.6043 155.011 87.5233 149.651ZM439.709 137.27C430.437 138.073 420.575 140.845 411.072 139.015C412.638 138.38 416.738 137.505 414.893 135.001C413.017 132.454 409.855 135.684 407.985 135.351C406.831 135.145 404.282 130.322 403.571 129.324C401.957 127.055 401.762 126.659 398.86 126.078C396.049 125.515 395.412 126.124 395.056 123.329C394.647 120.115 395.759 116.502 395.648 113.215C395.412 106.139 393.129 99.9345 391.004 93.2773C400.031 95.241 408.857 97.5697 418.087 98.8353C422.032 99.3765 428.17 100.625 431.754 97.9426C432.686 97.2452 432.537 96.3035 433.3 95.4952C434.579 94.139 436.952 92.7361 438.766 92.3497C449.93 89.9731 451.019 105.888 445.424 111.843C444.023 113.335 442.073 114.072 440.638 115.44C438.723 117.263 438.566 119.184 438.286 121.968C437.762 127.188 438.474 132.428 440.701 137.203L439.709 137.27ZM304.234 212.403C300.938 213.028 297.498 212.886 294.194 213.419C293.02 213.609 289.501 214.27 288.469 213.584C286.892 212.536 286.332 208.693 285.587 206.903C284.276 203.755 282.422 201.008 281.172 197.803C276.064 184.709 271.302 171.563 265.124 158.916C267.492 158.301 269.31 158.276 271.696 157.959C274.182 157.627 276.435 156.157 278.806 155.526C281.06 154.926 283.422 155.079 285.655 154.381C286.885 153.996 287.941 153.142 289.154 152.843C291.087 152.368 293.343 152.09 294.493 153.359C295.671 154.661 296.085 158.23 296.726 159.911C298.434 164.39 300.418 168.713 301.848 173.295C303.139 177.428 304.365 181.517 305.502 185.687C306.702 190.09 309.068 193.718 310.509 197.924C311.605 201.125 312.64 204.398 312.803 207.811C312.963 211.142 313.447 211.354 310.117 211.886C308.436 212.154 305.815 213.153 304.234 212.403ZM87.3956 368.281C86.5373 368.681 85.7278 368.628 84.9684 368.121C92.4103 364.978 99.6491 360.618 107.413 358.462C114.695 356.439 121.774 354.023 128.79 351.532C134.491 349.508 139.616 347.933 144.771 344.371C147.899 342.209 150.679 339.778 152.828 336.618C155.222 333.1 155.755 328.094 158.347 324.926C161.845 328.768 165.956 331.678 170.095 334.732C171.527 335.788 174.962 338.091 175.452 339.725C176.07 341.788 174.414 343.761 173.595 345.849C171.498 351.195 170.473 356.538 169.335 362.096C168.879 364.324 167.894 367.672 166.064 368.605C164.398 369.454 159.573 368.837 157.499 368.68C146.683 367.86 136.057 367.021 125.175 367.767C112.861 368.611 99.6778 369.195 87.3956 368.281ZM65.7906 269.218C63.8246 269.224 61.9043 268.979 59.9456 268.979C61.0763 263.7 58.433 256.869 57.4959 251.599C56.4474 245.705 55.6492 239.609 54.95 233.668C53.4763 221.153 52.8086 208.789 52.7895 196.183C52.7715 183.984 50.5507 172.836 47.4401 161.109C44.1 148.515 38.6302 137.189 34.1077 125.043C39.0684 127.665 41.8146 133.801 44.4212 138.493C47.7163 144.424 49.9112 150.992 51.2567 157.651C53.8526 170.497 56.7 183.381 59.6953 196.206C62.8144 209.559 64.6481 223.035 68.2211 236.279C69.9637 242.737 72.333 250.683 72.4646 257.344C72.5192 260.099 73.3494 265.869 72.1006 268.262C70.9329 270.501 68.3511 269.446 65.7906 269.218ZM362.538 252.65C362.641 254.021 362.739 255.326 362.983 256.68C360.26 256.654 356.811 253.829 354.476 252.56C351.631 251.015 348.782 249.311 345.999 247.758C340.627 244.759 334.529 242.782 328.793 240.319C322.204 237.488 316.147 234.068 309.846 230.661C307.645 229.47 291.827 222.613 292.092 220.74C295.565 220.624 299.038 220.509 302.511 220.394C305.489 220.295 310.1 220.968 312.951 220.047C314.513 219.543 316.266 217.686 316.856 216.232C317.439 214.793 316.128 208.175 316.89 207.753C320.777 211.722 323.221 216.996 326.696 221.278C330.536 226.009 335.499 228.772 340.968 231.287C347.007 234.064 353.258 236.214 359.431 238.594C362.034 239.598 361.982 240.172 362.209 243.026C362.463 246.216 362.435 249.451 362.538 252.65ZM48.6928 372.665C42.1459 373.367 35.4364 372.967 28.8383 373.515C26.4375 373.714 23.1091 374.011 25.5245 377.233C27.0455 379.262 31.9179 378.612 34.128 378.752C40.0618 379.13 46.3444 378.927 52.2917 378.839C53.5438 378.821 54.9276 378.448 56.1932 378.532C57.654 378.628 59.4034 379.679 60.7348 379.671C61.5555 379.666 61.8497 378.801 62.5573 378.721C64.0991 378.548 65.6404 378.421 67.1951 378.422C90.702 378.427 113.886 377.955 137.334 377.929C148.547 377.917 159.939 377.724 171.147 377.197C173.5 377.087 186.904 377.568 186.532 373.33C186.342 371.148 181.967 370.84 180.371 370.608C179.188 370.437 177.96 370.464 176.775 370.4C173.626 370.231 172.247 370.989 172.911 367.544C175.431 354.476 179.945 343.676 189.591 334.28C197.479 326.597 206.976 319.627 215.909 313.211C226.757 305.421 235.556 297.227 241.996 285.306C245.757 278.345 248.906 271.228 250.838 263.53C251.533 260.761 251.549 257.612 252.402 254.942C253.057 252.887 254.551 251.448 255.431 249.319C266.223 267.345 280.527 282.426 293.642 298.679C299.909 306.444 307.057 313.819 314.545 320.574C316.767 322.579 318.84 324.672 320.914 326.829C322.649 328.635 325.403 330.239 326.868 332.242C328.273 334.164 327.927 334.072 325.788 335.598C322.961 337.615 319.845 339.291 316.974 341.257C312.384 344.401 307.374 347.057 303.27 350.84C298.831 354.932 294.953 359.672 291.073 364.285C288.488 367.36 285.095 371.306 284.444 375.194C284.229 376.481 283.411 379.662 284.491 380.605C285.413 381.409 285.32 381.104 286.465 380.613C287.966 379.969 288.408 378.493 290.241 377.789C294.932 375.989 300.608 376.607 305.489 376.585C310.371 376.564 315.294 377.112 320.174 377.092C331.319 377.046 342.226 377.948 353.366 378.433C365.199 378.947 377.177 377.713 388.97 377.888C397.708 378.017 406.679 377.364 415.658 377.849C420.277 378.099 424.813 377.521 429.316 377.456C435.212 377.371 441.268 378.173 447.214 378.288C456.975 378.476 466.616 378.475 476.436 378.709C497.559 379.215 518.568 379.737 539.704 380.072C542.523 380.116 545.609 380.021 548.395 380.338C551.352 380.675 549.826 381.304 551.855 382.369C557.535 385.348 556.223 374.303 556.087 372.13C555.357 360.489 552.401 349.071 548.85 338.019C545.48 327.537 542.745 316.566 539.891 305.857C536.768 294.136 532.698 282.895 529.003 271.29C525.216 259.398 522.133 247.042 515.255 236.5C513.688 234.099 512.07 231.516 509.55 230.002C506.725 228.305 506.603 229.296 506.605 226.19C506.607 223.265 506.427 219.358 507.117 216.567C507.741 214.045 507.645 215.54 509.05 213.729C510.193 212.256 511.388 211.249 512.209 209.46C517.246 214.568 528.778 211.873 533.645 208.194C539.603 203.692 544.141 196.097 545.803 188.863C547.139 183.054 545.5 171.981 539.071 169.188C535.936 167.826 524.424 166.797 523.964 162.358C523.726 160.067 527.778 156.846 528.713 154.876C530.445 151.227 532.109 146.372 532.591 142.372C533.531 134.563 529.986 125.831 524.339 120.557C513.98 110.881 495.754 105.915 482.429 112.054C485.245 101.297 486.944 92.0178 485.526 80.8286C484.305 71.189 478.617 65.7958 470.791 60.9943C457.436 52.7998 439.275 49.5654 424.005 51.9481C420.535 52.4898 417.205 53.6514 413.992 54.5756C409.324 55.9183 403.737 55.4711 399.329 57.6525C396.134 59.2337 393.707 62.3836 390.901 64.4868C387.624 66.9421 384.902 70.6068 382.625 73.9959C377.757 81.2431 379.659 94.6937 383.734 101.968C384.608 103.529 385.687 104.842 387.133 105.907C388.638 107.015 390.932 107.36 391.708 108.797C393.695 112.479 391.778 120.449 391.513 124.428C391.205 129.048 393.541 132.519 398.78 132.887C401.811 133.101 401.907 131.343 403.359 134.961C404.299 137.306 405.154 139.861 406.511 142.011C409.309 146.441 414.435 146.009 419.104 145.889C424.508 145.75 429.832 144.896 435.239 144.357C433.811 148.933 429.901 152.484 427.46 156.561C424.159 162.074 422.173 166.645 421.636 173.068C421.224 178.004 422.113 181.901 425.49 185.575C426.888 187.095 428.127 187.17 427.78 188.924C427.569 189.994 425.719 191.759 425.064 192.613C423.332 194.872 421.321 196.945 419.797 199.357C413.931 208.64 412.198 222.79 412.184 233.596C412.183 234.091 411.919 235.145 412.138 235.657C412.3 236.036 413.53 237.235 413.548 237.337C413.789 238.727 412.435 241.108 410.309 241.344C408.076 241.591 403.987 239.728 401.911 239.116C398.587 238.136 395.2 237.413 391.884 236.407C386.529 234.781 381.198 233.485 375.753 232.212C373.293 231.637 370.819 231.158 368.351 230.62C365.539 230.008 364.233 228.825 362.782 231.685C361.537 234.14 362.311 234.585 359.296 233.348C356.302 232.119 353.376 230.596 350.453 229.209C345.297 226.763 339.157 224.583 334.709 220.972C327.29 214.948 324.543 205.355 317.442 198.964C315.465 197.184 314.286 197.152 313.036 194.687C311.698 192.048 311.007 188.664 310.304 185.826C309.072 180.856 308.195 175.868 307.077 170.902C305.685 164.716 302.676 159.113 300.481 153.213C299.625 150.914 299.182 147.992 297.802 145.926C297.436 145.378 296.738 145.069 296.453 144.616C295.471 143.059 295.481 142.632 295.227 140.759C294.037 132.009 288.814 136.612 283.107 138.619C280.703 139.464 269.284 144.947 273.644 148.593C268.447 150.101 260.122 149.281 260.192 156.73C260.228 160.547 262.511 164.629 263.736 168.202C264.824 171.374 265.876 174.558 266.982 177.725C269.403 184.662 272.341 191.392 274.704 198.351C275.781 201.522 276.67 204.768 278.17 207.761C279.492 210.401 282.694 213.311 283.222 216.199C269.372 210.29 256.558 201.746 241.055 202.291C234.267 202.529 228.107 205.382 224.358 211.351C219.657 218.832 216.565 227.209 211.971 234.759C195.258 262.225 175.326 287.178 156.979 313.507C155.57 315.531 153.758 317.444 153.269 319.944C152.95 321.575 153.569 323.207 153.186 324.774C152.392 328.031 148.382 332.097 145.663 333.969C140.451 337.556 131.978 342.617 125.474 342.169C129.556 332.359 129.502 321.61 129.312 311.146C129.131 301.206 128.057 291.346 126.782 281.508C126.493 279.283 126.242 277.219 125.602 275.062C124.868 272.587 123.86 272.822 126.059 270.597C129.443 267.171 133.468 264.353 136.88 260.884C144.258 253.384 151.82 247.505 157.628 238.549C163.15 230.029 168.977 221.264 173.065 211.935C177.274 202.331 178.956 192.075 181.045 181.905C181.893 177.778 184.984 173.17 184.363 168.86C183.578 163.414 181.052 167.38 180.024 170.311C176.887 179.259 169.54 187.267 163.455 194.463C156.88 202.237 148.839 208.741 141.977 216.289C134.504 224.509 129.385 233.956 122.74 242.731C122.74 231.841 126.458 220.752 127.979 209.979C129.317 200.497 129.737 190.985 130.583 181.462C132.504 159.829 130.844 137.56 128.148 116.082C126.867 105.881 127.594 95.921 127.555 85.6858C127.542 82.4283 128.891 74.9207 127.172 72.03C123.881 66.4933 121.961 78.6 121.795 80.405C120.8 91.1578 122.585 101.791 121.673 112.497C120.72 123.678 118.652 134.545 116.893 145.597C114.986 157.563 111.883 169.259 108.912 180.995C105.792 193.318 103.169 205.898 99.7003 218.122C98.7649 214.279 100.077 209.559 100.336 205.646C100.707 200.045 101.429 194.444 101.492 188.829C101.592 179.88 101.662 170.766 101.155 161.858C100.657 153.079 100.807 143.879 98.1146 135.421C96.8366 131.406 94.9623 127.49 93.1286 123.708C90.8662 119.045 90.0664 114.523 88.8137 109.564C87.7404 105.316 86.1699 101.181 85.455 96.8486C85.0106 94.1542 83.7703 86.2005 80.6855 92.2265C78.8946 95.7242 79.6686 100.909 79.6185 104.667C79.5544 109.484 80.2918 114.168 80.4048 118.965C80.6248 128.377 80.7829 137.777 81.4849 147.173C82.2212 157.031 81.5782 165.866 79.7029 175.579C77.6503 186.211 77.0496 196.867 75.9859 207.629C75.4374 213.186 74.5127 218.712 74.066 224.277C73.8298 227.224 75.0414 235.674 72.9298 237.773C72.7256 232.669 71.2631 227.56 70.1544 222.586C68.841 216.694 68.3105 210.5 67.3425 204.523C65.7748 194.841 62.7328 185.594 60.7202 176.019C56.5717 156.283 53.1247 130.917 35.739 117.999C33.4642 116.308 30.9645 115.061 28.5052 113.67C27.113 112.882 25.0447 110.845 23.4517 110.489C21.713 110.101 20.988 110.403 20.2831 112.42C19.3005 115.232 21.0977 116.545 22.7756 118.588C28.5823 125.655 31.0629 134.714 34.6483 143.003C42.8586 161.982 46.4912 182 46.5328 202.516C46.5547 213.256 47.2956 223.614 48.4408 234.289C49.6732 245.777 51.2961 257.927 54.7864 268.978C51.2859 269.763 47.4879 268.593 46.5379 272.662C46.3044 273.661 46.7263 274.843 46.4681 276.144C46.2173 277.409 45.6137 278.667 45.2565 279.91C44.5185 282.483 44.1281 285.021 43.7692 287.662C42.3815 297.87 39.9988 307.58 39.7451 317.93C39.5117 327.498 41.3848 337.191 43.1105 346.575C44.8492 356.026 49.8358 364.083 53.7615 372.63C52.0717 372.63 50.3826 372.647 48.6928 372.665Z" fill="black"/>
<path fill-rule="evenodd" clip-rule="evenodd" d="M270.881 350.939C272.742 351.466 281.731 352.459 281.729 355.28C281.728 356.971 272.751 356.938 271.163 357.122C271.068 355.061 270.975 353 270.881 350.939ZM251.041 370.401C245.861 371.386 238.83 370.001 235.519 365.435C233.972 363.301 233.238 360.056 232.734 357.51C232.253 355.083 230.768 349.028 231.778 346.753C233.019 343.96 244.92 346.879 248.385 347.2C254.431 347.758 260.684 347.824 266.734 347.429C266.734 353.676 267.053 359.765 263.379 365.142C260.728 369.021 255.75 369.937 251.041 370.401ZM252.082 378.118C257.71 376.058 263.618 377.396 267.283 371.355C268.213 369.822 268.996 368.174 269.558 366.471C269.833 365.725 270.047 364.961 270.199 364.179C269.913 362.495 270.53 362.02 272.049 362.754C275.032 362.174 278.303 364.222 281.445 363.618C289.066 362.154 287.682 351.238 282.568 347.459C281.557 346.712 280.548 346.505 279.392 346.136C276.843 345.323 275.463 346.231 273.131 346C271.247 345.814 270.729 343.838 268.704 342.968C267.378 342.398 265.537 342.442 264.144 342.385C256.849 342.085 249.532 342.088 242.19 341.612C238.766 341.391 235.07 341.933 231.715 341.348C230.145 341.074 230.37 340.028 228.883 340.945C227.344 341.895 228.009 345.406 228.086 346.806C228.536 354.902 229.018 363.585 233.355 370.663C237.322 377.139 245.13 377.802 252.082 378.118Z" fill="black"/>
<path fill-rule="evenodd" clip-rule="evenodd" d="M549.3 380.348C547.489 380.328 545.679 380.309 543.874 380.291C545.687 380.31 547.494 380.329 549.3 380.348Z" fill="black"/>
<path fill-rule="evenodd" clip-rule="evenodd" d="M46.5217 207.73C46.5251 205.991 46.529 204.252 46.533 202.516C46.5296 204.256 46.5257 205.993 46.5217 207.73Z" fill="black"/>
<path fill-rule="evenodd" clip-rule="evenodd" d="M507.112 214.872C507.117 216.567 507.123 218.261 507.129 219.951C507.124 218.256 507.118 216.564 507.112 214.872Z" fill="black"/>
<path fill-rule="evenodd" clip-rule="evenodd" d="M356.604 378.427C355.163 378.43 353.723 378.431 352.289 378.435C353.732 378.433 355.167 378.431 356.604 378.427Z" fill="black"/>
<path fill-rule="evenodd" clip-rule="evenodd" d="M444.071 378.082C442.63 378.086 441.19 378.091 439.757 378.096C441.199 378.093 442.635 378.087 444.071 378.082Z" fill="black"/>
<path fill-rule="evenodd" clip-rule="evenodd" d="M129.122 307.718C129.185 308.862 129.249 310.005 129.312 311.146C129.248 310.001 129.185 308.86 129.122 307.718Z" fill="black"/>
<path fill-rule="evenodd" clip-rule="evenodd" d="M48.6927 372.665C49.8058 372.653 50.919 372.642 52.0322 372.63C50.914 372.164 49.8008 372.184 48.6927 372.665Z" fill="black"/>
<path fill-rule="evenodd" clip-rule="evenodd" d="M147.527 377.728C146.728 377.716 145.929 377.704 145.138 377.69C145.939 377.702 146.733 377.715 147.527 377.728Z" fill="black"/>
<path fill-rule="evenodd" clip-rule="evenodd" d="M46.9551 221.842C46.9354 220.977 46.9157 220.113 46.896 219.252C46.9157 220.117 46.9354 220.979 46.9551 221.842Z" fill="black"/>
<path fill-rule="evenodd" clip-rule="evenodd" d="M121.672 112.498C121.738 111.606 121.804 110.715 121.87 109.826C121.804 110.718 121.738 111.608 121.672 112.498Z" fill="black"/>
<path fill-rule="evenodd" clip-rule="evenodd" d="M46.5605 211.135C46.5499 210.241 46.5392 209.348 46.5285 208.457C46.5392 209.352 46.5499 210.243 46.5605 211.135Z" fill="black"/>
<path fill-rule="evenodd" clip-rule="evenodd" d="M297.821 376.62C297.11 376.631 296.4 376.641 295.695 376.65C296.407 376.638 297.114 376.629 297.821 376.62Z" fill="black"/>
<path fill-rule="evenodd" clip-rule="evenodd" d="M114.836 378.077C114.142 378.091 113.447 378.105 112.759 378.119C113.456 378.106 114.146 378.091 114.836 378.077Z" fill="black"/>
<path fill-rule="evenodd" clip-rule="evenodd" d="M39.8248 315.24C39.8749 314.456 39.9249 313.673 39.9739 312.89C39.9238 313.674 39.8743 314.457 39.8248 315.24Z" fill="black"/>
<path fill-rule="evenodd" clip-rule="evenodd" d="M52.2915 378.839C51.7262 378.836 51.1609 378.832 50.6023 378.831C51.1693 378.835 51.7307 378.837 52.2915 378.839Z" fill="black"/>
<path fill-rule="evenodd" clip-rule="evenodd" d="M129.308 378.113C128.748 378.099 128.189 378.085 127.635 378.072C128.197 378.086 128.753 378.1 129.308 378.113Z" fill="black"/>
<path fill-rule="evenodd" clip-rule="evenodd" d="M255.133 377.685C254.516 377.682 253.9 377.679 253.29 377.674C253.907 377.678 254.52 377.682 255.133 377.685Z" fill="black"/>
<path fill-rule="evenodd" clip-rule="evenodd" d="M397.225 377.683C396.64 377.687 396.053 377.691 395.474 377.697C396.062 377.693 396.643 377.688 397.225 377.683Z" fill="black"/>
<path fill-rule="evenodd" clip-rule="evenodd" d="M431.791 377.778C431.194 377.745 430.598 377.711 430.006 377.678C430.605 377.712 431.198 377.745 431.791 377.778Z" fill="black"/>
<path fill-rule="evenodd" clip-rule="evenodd" d="M266.301 150.18C267.19 150.104 268.079 150.027 268.967 149.95C268.077 150.012 267.136 149.486 266.301 150.18Z" fill="black"/>
<path fill-rule="evenodd" clip-rule="evenodd" d="M39.741 373.003C40.6174 372.914 41.4937 372.825 42.3701 372.737C41.4932 372.825 40.6174 372.914 39.741 373.003Z" fill="black"/>
<path fill-rule="evenodd" clip-rule="evenodd" d="M100.869 155.576C100.927 156.344 100.987 157.112 101.045 157.878C100.986 157.109 100.927 156.342 100.869 155.576Z" fill="black"/>
<path fill-rule="evenodd" clip-rule="evenodd" d="M46.3403 187.589C46.2807 186.861 46.2211 186.133 46.1615 185.408C46.2211 186.137 46.2813 186.863 46.3403 187.589Z" fill="black"/>
<path fill-rule="evenodd" clip-rule="evenodd" d="M101.218 167.487C101.281 168.253 101.344 169.019 101.407 169.783C101.344 169.016 101.281 168.251 101.218 167.487Z" fill="black"/>
<path fill-rule="evenodd" clip-rule="evenodd" d="M46.7117 216.973C46.7173 216.232 46.723 215.491 46.728 214.753C46.2499 215.491 46.269 216.23 46.7117 216.973Z" fill="black"/>
<path fill-rule="evenodd" clip-rule="evenodd" d="M129.109 323.359C129.116 324.102 129.122 324.845 129.13 325.584C129.62 324.835 129.523 324.096 129.109 323.359Z" fill="black"/>
<path fill-rule="evenodd" clip-rule="evenodd" d="M73.2515 237.453C73.337 236.702 73.423 235.95 73.5085 235.2C73.4225 235.953 73.337 236.703 73.2515 237.453Z" fill="black"/>
<path fill-rule="evenodd" clip-rule="evenodd" d="M535.776 168.474C536.357 169.242 537.148 168.716 537.839 168.809C537.151 168.697 536.463 168.586 535.776 168.474Z" fill="black"/>
<path fill-rule="evenodd" clip-rule="evenodd" d="M248.455 342.145C249.189 342.146 249.923 342.146 250.657 342.147C249.923 342.146 249.189 342.145 248.455 342.145Z" fill="black"/>
<path fill-rule="evenodd" clip-rule="evenodd" d="M131.176 171.629C131.107 172.253 131.039 172.878 130.97 173.5C131.039 172.874 131.107 172.252 131.176 171.629Z" fill="black"/>
<path fill-rule="evenodd" clip-rule="evenodd" d="M493.959 109.618C494.697 109.633 495.435 109.647 496.173 109.662C495.442 109.232 494.707 109.108 493.959 109.618Z" fill="black"/>
<path fill-rule="evenodd" clip-rule="evenodd" d="M101.236 178.287C101.284 178.942 101.331 179.596 101.379 180.248C101.331 179.593 101.284 178.94 101.236 178.287Z" fill="black"/>
<path fill-rule="evenodd" clip-rule="evenodd" d="M121.474 97.9156C121.417 97.3188 121.36 96.722 121.303 96.1285C121.361 96.7265 121.417 97.321 121.474 97.9156Z" fill="black"/>
<path fill-rule="evenodd" clip-rule="evenodd" d="M127.274 96.046C127.331 96.6935 127.389 97.3415 127.447 97.9866C127.389 97.3381 127.331 96.6918 127.274 96.046Z" fill="black"/>
<path fill-rule="evenodd" clip-rule="evenodd" d="M447.839 52.7945C448.59 52.8856 449.34 52.9767 450.091 53.0673C449.34 52.9762 448.59 52.8856 447.839 52.7945Z" fill="black"/>
<path fill-rule="evenodd" clip-rule="evenodd" d="M502.077 110.134C502.847 110.212 503.618 110.291 504.388 110.37C503.618 110.291 502.847 110.212 502.077 110.134Z" fill="black"/>
<path fill-rule="evenodd" clip-rule="evenodd" d="M79.7893 112.031C79.7421 111.429 79.6954 110.826 79.6487 110.227C79.6954 110.83 79.7426 111.431 79.7893 112.031Z" fill="black"/>
<path fill-rule="evenodd" clip-rule="evenodd" d="M527.37 211.457C526.926 211.463 526.483 211.47 526.046 211.476C526.491 211.47 526.931 211.463 527.37 211.457Z" fill="black"/>
<path fill-rule="evenodd" clip-rule="evenodd" d="M127.251 285.811C127.295 286.478 127.34 287.145 127.384 287.81C127.339 287.143 127.295 286.477 127.251 285.811Z" fill="black"/>
<path fill-rule="evenodd" clip-rule="evenodd" d="M81.978 155.985C81.996 155.342 82.0134 154.7 82.032 154.059C82.0129 154.702 81.9954 155.343 81.978 155.985Z" fill="black"/>
<path fill-rule="evenodd" clip-rule="evenodd" d="M428.935 51.2732C429.62 51.2732 430.304 51.2738 430.988 51.2738C430.303 50.8035 429.619 50.8153 428.935 51.2732Z" fill="black"/>
<path fill-rule="evenodd" clip-rule="evenodd" d="M246.173 202.599C246.922 202.618 247.672 202.637 248.421 202.656C247.685 202.135 246.934 202.122 246.173 202.599Z" fill="black"/>
<path fill-rule="evenodd" clip-rule="evenodd" d="M180.647 376.594C180.203 376.603 179.758 376.612 179.319 376.623C179.766 376.615 180.207 376.604 180.647 376.594Z" fill="black"/>
<path fill-rule="evenodd" clip-rule="evenodd" d="M163.909 377.375C163.465 377.359 163.021 377.343 162.584 377.328C163.029 377.344 163.469 377.36 163.909 377.375Z" fill="black"/>
<path fill-rule="evenodd" clip-rule="evenodd" d="M425.863 377.684C425.4 377.695 424.937 377.707 424.48 377.718C424.945 377.707 425.404 377.695 425.863 377.684Z" fill="black"/>
<path fill-rule="evenodd" clip-rule="evenodd" d="M40.2097 307.801C40.2755 307.166 40.3413 306.53 40.4077 305.897C40.3413 306.534 40.2755 307.167 40.2097 307.801Z" fill="black"/>
<path fill-rule="evenodd" clip-rule="evenodd" d="M100.669 200.646C100.616 201.252 100.564 201.858 100.512 202.46C100.564 201.853 100.617 201.25 100.669 200.646Z" fill="black"/>
<path fill-rule="evenodd" clip-rule="evenodd" d="M77.4018 190.246C77.4738 189.603 77.5457 188.961 77.6172 188.321C77.5452 188.964 77.4738 189.604 77.4018 190.246Z" fill="black"/>
<path fill-rule="evenodd" clip-rule="evenodd" d="M422.107 378.067C421.64 378.059 421.173 378.052 420.711 378.046C421.18 378.054 421.643 378.06 422.107 378.067Z" fill="black"/>
<path fill-rule="evenodd" clip-rule="evenodd" d="M252.082 378.118C251.627 378.097 251.174 378.076 250.725 378.056C251.18 378.077 251.631 378.097 252.082 378.118Z" fill="black"/>
<path fill-rule="evenodd" clip-rule="evenodd" d="M81.1994 143.339C81.2202 142.688 81.2405 142.038 81.2607 141.388C81.2399 142.039 81.2197 142.689 81.1994 143.339Z" fill="black"/>
<path fill-rule="evenodd" clip-rule="evenodd" d="M466.377 378.492C465.922 378.489 465.467 378.485 465.017 378.482C465.475 378.486 465.926 378.489 466.377 378.492Z" fill="black"/>
<path fill-rule="evenodd" clip-rule="evenodd" d="M81.3901 378.486C80.9221 378.49 80.4536 378.495 79.9912 378.5C80.462 378.496 80.9261 378.491 81.3901 378.486Z" fill="black"/>
<path fill-rule="evenodd" clip-rule="evenodd" d="M71.2788 378.43C70.8266 378.462 70.3749 378.494 69.9282 378.525C70.3822 378.493 70.8305 378.462 71.2788 378.43Z" fill="black"/>
<path fill-rule="evenodd" clip-rule="evenodd" d="M67.1953 378.422C66.7352 378.435 66.2745 378.449 65.82 378.46C66.2818 378.446 66.7386 378.434 67.1953 378.422Z" fill="black"/>
<path fill-rule="evenodd" clip-rule="evenodd" d="M46.2279 192.825C46.2583 192.185 46.2881 191.544 46.3179 190.906C46.2875 191.547 46.2583 192.186 46.2279 192.825Z" fill="black"/>
<path fill-rule="evenodd" clip-rule="evenodd" d="M355.228 370.031C353.827 369.958 352.427 369.885 351.026 369.812C352.427 369.885 353.827 369.958 355.228 370.031Z" fill="black"/>
<path fill-rule="evenodd" clip-rule="evenodd" d="M439.709 137.27C438.493 137.376 437.278 137.482 436.063 137.586C437.279 137.481 438.494 137.375 439.709 137.27Z" fill="black"/>
<path fill-rule="evenodd" clip-rule="evenodd" d="M96.5012 190.118C96.4635 191.278 96.4247 192.438 96.387 193.594C96.4253 192.434 96.4635 191.276 96.5012 190.118Z" fill="black"/>
<path fill-rule="evenodd" clip-rule="evenodd" d="M71.4148 372.014C70.1458 372.091 68.8773 372.168 67.6083 372.245C68.8852 372.303 70.1812 372.667 71.4148 372.014Z" fill="black"/>
<path fill-rule="evenodd" clip-rule="evenodd" d="M78.9241 234.817C78.9145 233.711 78.905 232.604 78.896 231.501C78.9055 232.608 78.9145 233.712 78.9241 234.817Z" fill="black"/>
<path fill-rule="evenodd" clip-rule="evenodd" d="M82.1724 269.58C81.0592 269.595 79.9448 269.61 78.8322 269.624C79.946 269.609 81.0592 269.595 82.1724 269.58Z" fill="black"/>
<path fill-rule="evenodd" clip-rule="evenodd" d="M362.457 250.128C362.485 250.971 362.513 251.815 362.539 252.654C362.511 251.809 362.484 250.969 362.457 250.128Z" fill="black"/>
<path fill-rule="evenodd" clip-rule="evenodd" d="M63.6416 214.424C63.6871 215.263 63.7327 216.102 63.7771 216.937C63.731 216.097 63.686 215.26 63.6416 214.424Z" fill="black"/>
<path fill-rule="evenodd" clip-rule="evenodd" d="M87.3958 368.281C86.5858 368.226 85.7757 368.171 84.9674 368.119C85.5766 368.606 86.1892 368.647 87.3958 368.281Z" fill="black"/>
<path fill-rule="evenodd" clip-rule="evenodd" d="M92.8164 258.594C92.7607 259.498 92.7051 260.403 92.6499 261.305C92.7056 260.4 92.7607 259.497 92.8164 258.594Z" fill="black"/>
<path fill-rule="evenodd" clip-rule="evenodd" d="M395.675 115.829C395.666 114.956 395.658 114.082 395.649 113.212C395.657 114.086 395.666 114.958 395.675 115.829Z" fill="black"/>
<path fill-rule="evenodd" clip-rule="evenodd" d="M91.8359 269.763L88.817 269.697C89.8132 270.178 90.8195 270.195 91.8359 269.763Z" fill="black"/>
<path fill-rule="evenodd" clip-rule="evenodd" d="M63.984 276.209C64.6961 276.215 65.4077 276.221 66.1147 276.228C65.4009 276.223 64.6922 276.216 63.984 276.209Z" fill="black"/>
<path fill-rule="evenodd" clip-rule="evenodd" d="M324.687 368.628C323.701 368.641 322.716 368.654 321.73 368.667C322.723 369.164 323.71 369.235 324.687 368.628Z" fill="black"/>
<path fill-rule="evenodd" clip-rule="evenodd" d="M510.329 371.532C509.329 371.443 508.328 371.353 507.328 371.264C508.328 371.353 509.329 371.443 510.329 371.532Z" fill="black"/>
<path fill-rule="evenodd" clip-rule="evenodd" d="M96.1541 197.567C96.1051 198.475 96.0562 199.383 96.0072 200.288C96.0562 199.379 96.1051 198.474 96.1541 197.567Z" fill="black"/>
<path fill-rule="evenodd" clip-rule="evenodd" d="M415.396 139.401C414.553 138.986 413.703 138.916 412.845 139.356C413.696 139.372 414.546 139.387 415.396 139.401Z" fill="black"/>
<path fill-rule="evenodd" clip-rule="evenodd" d="M123.735 208.051C123.665 208.816 123.596 209.582 123.526 210.346C123.596 209.579 123.665 208.815 123.735 208.051Z" fill="black"/>
<path fill-rule="evenodd" clip-rule="evenodd" d="M52.5076 190.182C52.9407 189.432 52.9255 188.687 52.4862 187.948C52.4935 188.694 52.5003 189.438 52.5076 190.182Z" fill="black"/>
<path fill-rule="evenodd" clip-rule="evenodd" d="M96.0161 164.171C96.0161 164.929 96.0156 165.687 96.0156 166.443C96.0161 165.683 96.0161 164.927 96.0161 164.171Z" fill="black"/>
<path fill-rule="evenodd" clip-rule="evenodd" d="M65.7905 269.218C64.9226 268.952 64.0546 268.575 63.1906 269.227C64.0575 269.224 64.9237 269.221 65.7905 269.218Z" fill="black"/>
<path fill-rule="evenodd" clip-rule="evenodd" d="M346.256 369.688C345.383 369.607 344.51 369.526 343.637 369.444C344.51 369.526 345.383 369.607 346.256 369.688Z" fill="black"/>
<path fill-rule="evenodd" clip-rule="evenodd" d="M465.981 369.69C465.182 369.338 464.383 369.154 463.595 369.717C464.391 369.707 465.186 369.699 465.981 369.69Z" fill="black"/>
<path fill-rule="evenodd" clip-rule="evenodd" d="M302.371 368.562C301.515 368.188 300.662 367.983 299.818 368.588C300.669 368.579 301.52 368.571 302.371 368.562Z" fill="black"/>
<path fill-rule="evenodd" clip-rule="evenodd" d="M492.771 257.904C492.706 258.676 492.642 259.448 492.578 260.218C492.643 259.446 492.707 258.675 492.771 257.904Z" fill="black"/>
<path fill-rule="evenodd" clip-rule="evenodd" d="M294.194 213.419C293.353 213.113 292.514 212.954 291.688 213.465C292.523 213.449 293.359 213.434 294.194 213.419Z" fill="black"/>
<path fill-rule="evenodd" clip-rule="evenodd" d="M96.1672 236.408C96.1205 237.163 96.0739 237.918 96.0277 238.671C96.0744 237.916 96.1211 237.162 96.1672 236.408Z" fill="black"/>
<path fill-rule="evenodd" clip-rule="evenodd" d="M493.314 168.294C493.384 168.902 493.454 169.511 493.523 170.116C493.453 169.507 493.384 168.901 493.314 168.294Z" fill="black"/>
<path fill-rule="evenodd" clip-rule="evenodd" d="M542.09 344.633C542.133 345.225 542.176 345.817 542.219 346.406C542.174 345.813 542.132 345.223 542.09 344.633Z" fill="black"/>
<path fill-rule="evenodd" clip-rule="evenodd" d="M78.5511 240.403C78.5984 239.791 78.6456 239.179 78.6929 238.57C78.6456 239.183 78.5984 239.794 78.5511 240.403Z" fill="black"/>
<path fill-rule="evenodd" clip-rule="evenodd" d="M139.835 367.419C139.085 367.424 138.335 367.43 137.586 367.435C138.336 367.43 139.086 367.424 139.835 367.419Z" fill="black"/>
<path fill-rule="evenodd" clip-rule="evenodd" d="M362.741 255.336C362.601 255.781 362.461 256.227 362.321 256.674C363.257 256.9 363.397 256.454 362.741 255.336Z" fill="black"/>
<path fill-rule="evenodd" clip-rule="evenodd" d="M306.518 212.412C305.756 212.409 304.995 212.406 304.233 212.403C304.993 212.764 305.755 213.012 306.518 212.412Z" fill="black"/>
<path fill-rule="evenodd" clip-rule="evenodd" d="M492.344 261.56C492.318 262.235 492.292 262.911 492.267 263.584C492.294 262.908 492.319 262.234 492.344 261.56Z" fill="black"/>
<path fill-rule="evenodd" clip-rule="evenodd" d="M484.286 370.428C483.551 370.428 482.817 370.427 482.081 370.427C482.817 370.427 483.551 370.428 484.286 370.428Z" fill="black"/>
<path fill-rule="evenodd" clip-rule="evenodd" d="M121.886 268.677C121.859 269.299 121.832 269.921 121.804 270.539C121.831 269.916 121.859 269.297 121.886 268.677Z" fill="black"/>
<path fill-rule="evenodd" clip-rule="evenodd" d="M499.894 371.186C499.171 370.706 498.446 370.748 497.721 371.178C498.445 371.181 499.17 371.184 499.894 371.186Z" fill="black"/>
<path fill-rule="evenodd" clip-rule="evenodd" d="M480.86 159.611C480.821 160.245 480.782 160.881 480.741 161.511C480.78 160.875 480.82 160.243 480.86 159.611Z" fill="black"/>
<path fill-rule="evenodd" clip-rule="evenodd" d="M503.654 371.252C502.902 371.254 502.151 371.258 501.4 371.261C502.154 371.774 502.905 371.798 503.654 371.252Z" fill="black"/>
<path fill-rule="evenodd" clip-rule="evenodd" d="M87.5232 149.651C87.517 149.006 87.5114 148.362 87.5058 147.719C87.5119 148.364 87.5176 149.007 87.5232 149.651Z" fill="black"/>
<path fill-rule="evenodd" clip-rule="evenodd" d="M432.532 138.378C431.813 138.472 431.094 138.566 430.376 138.659C431.095 138.565 431.814 138.472 432.532 138.378Z" fill="black"/>
<path fill-rule="evenodd" clip-rule="evenodd" d="M495.968 194.009C495.959 194.611 495.949 195.213 495.938 195.812C495.947 195.209 495.958 194.609 495.968 194.009Z" fill="black"/>
<path fill-rule="evenodd" clip-rule="evenodd" d="M82.6836 193.922C82.723 193.309 82.7624 192.696 82.8018 192.086C82.7624 192.7 82.7224 193.312 82.6836 193.922Z" fill="black"/>
<path fill-rule="evenodd" clip-rule="evenodd" d="M250.349 370.533C249.462 370.613 248.575 370.694 247.689 370.774C248.576 370.693 249.462 370.613 250.349 370.533Z" fill="black"/>
<path fill-rule="evenodd" clip-rule="evenodd" d="M253.313 347.57C253.793 347.578 254.272 347.585 254.747 347.595C254.266 347.589 253.789 347.579 253.313 347.57Z" fill="black"/>
<path fill-rule="evenodd" clip-rule="evenodd" d="M253.272 370.182C252.529 370.255 251.784 370.328 251.04 370.402C251.784 370.328 252.529 370.255 253.272 370.182Z" fill="black"/>
<path fill-rule="evenodd" clip-rule="evenodd" d="M387.159 320.081C386.191 325.55 394.692 330.9 395.366 323.124C395.612 320.281 393.711 318.282 391.582 316.544C388.56 314.077 386.872 316.439 387.159 320.081Z" fill="black"/>
<path fill-rule="evenodd" clip-rule="evenodd" d="M480.856 253.347C478.854 254.166 463.554 259.152 471.501 261.659C473.605 262.323 476.785 262.422 478.608 261.253C480.802 259.845 483.015 255.692 480.856 253.347Z" fill="black"/>
<path fill-rule="evenodd" clip-rule="evenodd" d="M477.091 179.275C471.898 178.672 467.114 187.201 473.516 186.924C478.176 186.722 484.444 179.275 477.091 179.275Z" fill="black"/>
<path fill-rule="evenodd" clip-rule="evenodd" d="M458.514 200.188C454.178 203.971 462.216 212.438 465.407 209.161C467.036 207.487 465.533 203.881 464.188 202.48C462.808 201.043 460.352 200.773 458.514 200.188Z" fill="black"/>
<path fill-rule="evenodd" clip-rule="evenodd" d="M445.605 298.27C448.165 298.677 459.423 302.355 457.075 295.674C456.18 293.125 453.682 293.881 451.399 293.998C447.719 294.186 445.605 294.01 445.605 298.27Z" fill="black"/>
<path fill-rule="evenodd" clip-rule="evenodd" d="M453.021 315.481C449.189 317.531 454.791 329.005 457.967 326.564C462.374 323.176 456.347 316.511 453.021 315.481Z" fill="black"/>
<path fill-rule="evenodd" clip-rule="evenodd" d="M436.307 306.257C434.443 305.496 425.659 313.946 429.003 316.297C430.717 317.502 433.964 315.436 434.997 314.191C436.935 311.855 437.11 308.974 436.307 306.257Z" fill="black"/>
<path fill-rule="evenodd" clip-rule="evenodd" d="M486.989 237.191C485.085 237.503 481.796 237.602 481.673 240.279C481.565 242.631 484.514 243.393 486.591 243.578C488.745 243.769 491.597 243.161 491.638 240.453C491.681 237.53 487.057 237.706 486.989 237.191Z" fill="black"/>
<path fill-rule="evenodd" clip-rule="evenodd" d="M440.022 353.658C437.993 354.889 428.532 359.323 432.588 362.525C434.105 363.724 438.706 361.249 439.742 359.99C440.977 358.488 442.185 354.97 440.022 353.658Z" fill="black"/>
<path fill-rule="evenodd" clip-rule="evenodd" d="M413.721 321.486C414.014 316.592 405.757 314.644 407.469 321.591C407.952 323.549 408.418 326.522 410.84 326.636C413.702 326.77 413.805 323.384 413.721 321.486Z" fill="black"/>
<path fill-rule="evenodd" clip-rule="evenodd" d="M439.225 236.385C439.168 240.098 446.281 243.371 446.336 237.487C446.385 232.229 438.96 230.69 439.225 236.385Z" fill="black"/>
<path fill-rule="evenodd" clip-rule="evenodd" d="M443.922 217.05C442.17 217.615 439.84 217.906 439.686 220.133C439.522 222.489 441.712 223.538 443.682 223.406C445.297 223.298 447.688 222.102 447.981 220.349C448.412 217.776 445.901 217.608 443.922 217.05Z" fill="black"/>
<path fill-rule="evenodd" clip-rule="evenodd" d="M476.515 285.019C476.545 281.955 470.406 278.274 469.275 281.828C468.913 282.965 471.807 288.066 472.769 288.448C475.316 289.458 475.671 287.103 476.515 285.019Z" fill="black"/>
<path fill-rule="evenodd" clip-rule="evenodd" d="M426.208 336.005C428.283 337.862 434.506 343.078 434.04 336.076C433.743 331.603 425.661 331.836 426.208 336.005Z" fill="black"/>
<path fill-rule="evenodd" clip-rule="evenodd" d="M324.821 356.017C324.141 353.073 314.405 358.181 317.654 361.899C318.745 363.148 321.596 362.018 322.692 361.278C324.862 359.814 324.909 358.463 324.821 356.017Z" fill="black"/>
<path fill-rule="evenodd" clip-rule="evenodd" d="M379.066 292.996C378.686 291.684 378.264 289.363 377.012 288.525C374.746 287.01 372.774 289.296 372.773 291.705C372.772 296.2 377.888 297.617 379.066 292.996Z" fill="black"/>
<path fill-rule="evenodd" clip-rule="evenodd" d="M403.196 345.544C400.668 346.123 395.039 352.268 398.304 354.774C401.445 357.187 405.623 347.379 403.196 345.544Z" fill="black"/>
<path fill-rule="evenodd" clip-rule="evenodd" d="M400.789 299.032C397.539 299.291 393.072 304.555 398.123 305.391C402.075 306.046 406.671 300.321 400.789 299.032Z" fill="black"/>
<path fill-rule="evenodd" clip-rule="evenodd" d="M371.365 323.252C370.55 320.506 362.489 323.448 362.942 326.471C363.183 328.078 366.478 328.456 368.211 328.031C370.761 327.405 371.423 325.732 371.365 323.252Z" fill="black"/>
<path fill-rule="evenodd" clip-rule="evenodd" d="M466.381 169.911C466.322 166.362 459.502 164.915 459.002 168.492C458.551 171.723 466.466 175.162 466.381 169.911Z" fill="black"/>
<path fill-rule="evenodd" clip-rule="evenodd" d="M373.618 359.825C373.126 358.04 372.914 355.892 370.685 355.657C368.132 355.387 368.208 357.345 368.508 359.373C369.324 364.892 372.443 365.167 373.618 359.825Z" fill="black"/>
<path fill-rule="evenodd" clip-rule="evenodd" d="M481.323 212.14C484.879 212.943 491.391 206.095 487.411 204.625C484.606 203.589 481.323 210.074 481.323 212.14Z" fill="black"/>
<path fill-rule="evenodd" clip-rule="evenodd" d="M435.973 265.333C437.783 266.185 438.2 266.702 439.59 265.303C440.8 264.086 440.747 260.693 439.708 259.426C435.729 254.575 435.822 263.37 435.973 265.333Z" fill="black"/>
<path fill-rule="evenodd" clip-rule="evenodd" d="M421.21 255.494C419.322 255.734 413.715 261.053 416.635 263.167C420.213 265.757 422.237 257.644 421.21 255.494Z" fill="black"/>
<path fill-rule="evenodd" clip-rule="evenodd" d="M380.379 256.895C381.751 262.177 385.175 258.623 384.981 254.625C384.669 248.223 381.121 253.799 380.379 256.895Z" fill="black"/>
<path fill-rule="evenodd" clip-rule="evenodd" d="M359.56 341.734C357.239 342.695 354.089 351.566 357.404 352.042C361.127 352.576 359.888 343.582 359.56 341.734Z" fill="black"/>
<path fill-rule="evenodd" clip-rule="evenodd" d="M388.543 336.75C385.887 335.854 384.914 341.456 386.458 342.497C389.854 344.786 389.138 338.072 388.543 336.75Z" fill="black"/>
<path fill-rule="evenodd" clip-rule="evenodd" d="M413.72 321.486C413.754 322.23 413.787 322.973 413.822 323.712C413.789 322.968 413.755 322.227 413.72 321.486Z" fill="black"/>
<path fill-rule="evenodd" clip-rule="evenodd" d="M324.821 356.017C324.849 356.78 324.876 357.542 324.905 358.301C324.879 357.537 324.85 356.777 324.821 356.017Z" fill="black"/>
<path fill-rule="evenodd" clip-rule="evenodd" d="M371.365 323.252C371.379 323.899 371.395 324.546 371.412 325.188C371.397 324.54 371.38 323.896 371.365 323.252Z" fill="black"/>
<path fill-rule="evenodd" clip-rule="evenodd" d="M77.6289 312.119C72.1232 311.942 65.9813 309.87 60.5711 310.529C59.0816 310.711 55.6532 311.086 58.0393 313.295C59.1806 314.352 64.6442 313.805 66.2979 314.156C76.4066 316.296 87.8816 317.677 98.2468 317.498C103.099 317.415 107.987 317.026 112.837 316.77C117.683 316.513 118.16 314.544 112.706 313.917C107.043 313.267 101.231 313.508 95.5389 313.502C89.5551 313.494 83.601 312.518 77.6289 312.119Z" fill="black"/>
<path fill-rule="evenodd" clip-rule="evenodd" d="M65.5418 298.854C66.0716 300.363 66.5368 303.826 68.5675 304.053C71.4115 304.371 71.8823 299.488 71.7776 297.702C71.6505 295.546 70.8748 291.966 68.1956 292.713C65.9327 293.343 65.706 297.129 65.5418 298.854Z" fill="black"/>
<path fill-rule="evenodd" clip-rule="evenodd" d="M82.7595 297.75C82.3438 296.134 82.1396 292.492 79.8548 292.368C77.301 292.23 76.5715 296.025 76.5884 297.844C76.6052 299.57 77.2437 302.831 79.2771 303.23C82.0339 303.77 82.2803 299.596 82.7595 297.75Z" fill="black"/>
<path fill-rule="evenodd" clip-rule="evenodd" d="M111.434 300.648C112.261 302.589 112.808 305.264 115.369 303.94C117.349 302.916 117.625 298.787 117.251 296.896C116.864 294.938 116.045 292.691 113.794 293.572C111.199 294.588 111.461 298.51 111.434 300.648Z" fill="black"/>
<path fill-rule="evenodd" clip-rule="evenodd" d="M89.7197 298.855C92.1604 306.253 96.612 301.247 94.9217 295.724C93.1543 289.95 89.9441 295.558 89.7197 298.855Z" fill="black"/>
<path fill-rule="evenodd" clip-rule="evenodd" d="M101.611 299.221C102.289 300.523 103.01 303.334 104.837 303.038C107.077 302.674 107.149 298.364 106.903 296.759C106.689 295.353 106.057 293.012 104.183 293.042C101.474 293.086 101.655 297.534 101.611 299.221Z" fill="black"/>
<path fill-rule="evenodd" clip-rule="evenodd" d="M52.9255 300.641C54.7424 304.717 57.2416 301.206 56.4418 298.31C55.2554 294.017 53.0285 297.821 52.9255 300.641Z" fill="black"/>
<path fill-rule="evenodd" clip-rule="evenodd" d="M97.4221 313.507C99.406 313.499 101.391 313.492 103.375 313.484C101.389 313.11 99.4037 312.965 97.4221 313.507Z" fill="black"/>
<path fill-rule="evenodd" clip-rule="evenodd" d="M57.9898 310.513C59.711 310.524 61.4317 310.535 63.1519 310.546C61.434 310.031 59.7133 310.02 57.9898 310.513Z" fill="black"/>
<path fill-rule="evenodd" clip-rule="evenodd" d="M77.6289 312.119C79.0065 312.211 80.3835 312.304 81.7605 312.396C80.3829 312.304 79.0059 312.211 77.6289 312.119Z" fill="black"/>
<path fill-rule="evenodd" clip-rule="evenodd" d="M111.433 300.648C111.446 299.659 111.459 298.67 111.471 297.683C110.962 298.667 110.997 299.654 111.433 300.648Z" fill="black"/>
<path fill-rule="evenodd" clip-rule="evenodd" d="M100.636 317.477C99.8377 317.485 99.0389 317.491 98.2469 317.499C99.0479 317.491 99.8422 317.485 100.636 317.477Z" fill="black"/>
<path fill-rule="evenodd" clip-rule="evenodd" d="M114.05 316.77C113.241 316.77 112.431 316.77 111.628 316.77C112.44 316.77 113.245 316.77 114.05 316.77Z" fill="black"/>
<path fill-rule="evenodd" clip-rule="evenodd" d="M107.417 313.592C108.542 313.685 109.667 313.777 110.791 313.869C109.666 313.777 108.542 313.685 107.417 313.592Z" fill="black"/>
<path fill-rule="evenodd" clip-rule="evenodd" d="M92.2066 313.495C93.3175 313.497 94.4279 313.499 95.5388 313.501C94.4284 313.033 93.3181 313.02 92.2066 313.495Z" fill="black"/>
<path fill-rule="evenodd" clip-rule="evenodd" d="M101.611 299.221C101.639 298.19 101.666 297.16 101.691 296.13C101.664 297.161 101.637 298.191 101.611 299.221Z" fill="black"/>
<path fill-rule="evenodd" clip-rule="evenodd" d="M117.251 296.896C117.257 297.902 117.264 298.907 117.271 299.908C117.265 298.902 117.259 297.899 117.251 296.896Z" fill="black"/>
<path fill-rule="evenodd" clip-rule="evenodd" d="M71.3175 311.745C72.2996 311.834 73.2812 311.922 74.2622 312.011C73.2801 311.922 72.2985 311.834 71.3175 311.745Z" fill="black"/>
<path fill-rule="evenodd" clip-rule="evenodd" d="M52.9257 300.641C52.9577 299.763 52.9893 298.885 53.0208 298.008C52.9887 298.886 52.9577 299.763 52.9257 300.641Z" fill="black"/>
<path fill-rule="evenodd" clip-rule="evenodd" d="M94.7021 317.507C94.0187 317.494 93.3353 317.481 92.6586 317.469C93.3443 317.483 94.0232 317.495 94.7021 317.507Z" fill="black"/>
<path fill-rule="evenodd" clip-rule="evenodd" d="M65.5419 298.854C65.6021 298.223 65.6623 297.592 65.7219 296.963C65.6617 297.595 65.6015 298.224 65.5419 298.854Z" fill="black"/>
<path fill-rule="evenodd" clip-rule="evenodd" d="M89.7191 298.854C89.763 298.206 89.8074 297.558 89.8513 296.912C89.8069 297.56 89.763 298.208 89.7191 298.854Z" fill="black"/>
<path fill-rule="evenodd" clip-rule="evenodd" d="M442.202 108.431C444.89 107.726 445.394 103.948 444.962 101.628C444.472 100.51 443.982 99.3921 443.492 98.2738C443.684 97.8604 443.875 97.447 444.067 97.0335C443.821 94.7307 444.449 93.73 441.803 94.6626C436.886 96.3962 436.101 108.254 442.202 108.431Z" fill="black"/>
<path fill-rule="evenodd" clip-rule="evenodd" d="M402.41 101.127C400.195 100.953 396.173 103.532 398.377 106.027C399.743 107.573 404.244 106.842 406.08 107.165C408.515 107.593 411.054 108.178 409.737 104.531C408.703 101.667 405.008 101.052 402.41 101.127Z" fill="black"/>
<path fill-rule="evenodd" clip-rule="evenodd" d="M404.74 118.283C406.99 116.479 405.986 108.262 402.562 109.741C399.04 111.262 402.863 117.097 404.74 118.283Z" fill="black"/>
<path fill-rule="evenodd" clip-rule="evenodd" d="M444.962 101.628C444.962 102.492 444.963 103.358 444.965 104.218C445.434 103.352 445.419 102.49 444.962 101.628Z" fill="black"/>
<path fill-rule="evenodd" clip-rule="evenodd" d="M442.202 108.431C441.744 108.419 441.285 108.405 440.832 108.393C441.293 108.408 441.747 108.42 442.202 108.431Z" fill="black"/>
<path fill-rule="evenodd" clip-rule="evenodd" d="M164.449 345.056C164.66 348.794 168.673 346.031 168.389 343.53C167.872 338.993 165.306 343.477 164.449 345.056Z" fill="black"/>
</svg>
