<svg width="650" height="488" viewBox="0 0 650 488" fill="none" xmlns="http://www.w3.org/2000/svg">
<circle cx="350.5" cy="253.5" r="218.5" fill="#CAE9FF"/>
<path fill-rule="evenodd" clip-rule="evenodd" d="M285.007 213.165C279.23 217.357 280.15 225.605 281.888 231.598C284.449 240.422 289.55 248.59 295.368 255.631C305.69 268.122 323.213 282.148 339.365 271.182C353.749 261.415 362.822 241.709 365.954 225.11C366.922 219.98 368.211 212.337 363.663 208.481C356.939 202.78 345.079 203.817 336.962 204.551C331.617 205.034 326.459 206.675 321.177 205.905C308.904 204.114 295.244 205.736 285.007 213.165Z" fill="#5FA8D3"/>
<path fill-rule="evenodd" clip-rule="evenodd" d="M533.853 278.531C522.151 293.39 502.256 295.738 484.586 295.592C473.976 295.504 463.345 294.704 452.943 292.54C447.335 291.373 441.765 289.827 436.346 287.97C432.767 286.743 427.439 286.129 425.916 282.291C421.898 272.161 424.854 259.459 426.508 249.178C427.35 243.949 427.982 238.688 428.8 233.454C429.324 230.106 429.575 226.401 430.977 223.269C432.618 219.599 434.691 220.332 438.163 221.346C442.946 222.744 447.856 223.324 452.774 224.076C464.775 225.91 475.246 229.61 486.153 234.853C496.938 240.037 507.399 245.154 517.019 252.363C521.893 256.016 526.092 259.981 530.005 264.637C533.027 268.234 537.539 273.849 533.853 278.531ZM482.7 344.53C482.606 346.13 464.267 341.3 461.853 340.758C446.018 337.203 429.869 333.154 414.919 326.729C400.965 320.734 388.67 313.874 377.69 303.221C372.571 298.255 367.968 293.026 363.563 287.457C361.355 284.666 358.338 284.99 355.876 282.629C353.661 280.503 351.963 278.844 352.655 275.667C358.189 277.126 368.408 286.301 374.144 281.668C377.414 279.027 372.879 276.268 370.786 274.738C366.85 271.861 363.484 268.31 360.356 264.584C365.728 265.627 370.728 267.641 375.403 270.444C377.48 271.689 384.599 276.205 386.256 271.901C387.276 269.25 382.449 265.92 380.944 264.454C377.248 260.854 373.258 256.651 371.296 251.811C376.148 250.685 380.721 254.438 384.024 257.495C387.692 260.889 392.187 264.451 395.262 268.362C396.849 270.379 397.194 272.762 398.433 274.938C399.828 277.385 402.058 279.484 404.19 281.295C408.297 284.785 413.101 287.354 418.032 289.48C429.3 294.336 441.377 297.773 453.388 300.184C459.28 301.367 465.027 301.912 471.008 302.112C475.656 302.269 477.712 303.66 479.487 307.946C484.289 319.546 483.417 332.307 482.7 344.53ZM344.777 256.144C342.09 258.661 338.598 260.24 335.79 262.66C333.318 264.789 330.467 267.061 327.708 268.782C324.763 270.62 322.563 269.332 319.911 267.669C316.798 265.718 313.22 264.927 310.014 263.181C298.929 257.142 285.367 242.344 287.437 228.756C288.314 222.997 291.288 217.33 296.689 214.717C301.595 212.345 308.725 211.028 313.973 213.011C316.933 214.13 319.051 216.6 320.948 219.029C323.159 221.86 324.006 221.413 326.259 218.683C330.289 213.799 336.935 209.514 343.505 209.616C346.771 209.668 350.015 210.358 352.956 211.714C353.355 211.898 353.576 212.455 353.977 212.644C354.468 212.875 355.275 212.393 355.617 212.61C356.478 213.155 357.338 214.861 357.834 215.726C359.828 219.197 363.417 226.005 359.8 228.928C359.798 228.929 359.961 232.882 359.911 233.333C359.656 235.692 358.841 237.639 357.792 239.796C354.641 246.276 349.989 251.264 344.777 256.144ZM350.136 310.968C347.59 311.76 344.848 303.774 347.29 302.499C349.618 301.283 352.441 310.251 350.136 310.968ZM310.153 301.419C309.271 304.436 308.899 307.859 306.743 310.314C304.769 307.97 304.574 303.643 306.489 301.233C307.582 299.858 311.117 298.123 310.153 301.419ZM391.616 248.565C391.602 248.641 394.679 250.114 393.178 251.726C391.126 253.926 391.409 249.643 391.616 248.565ZM404.334 223.979C404.298 227.03 397.848 226.293 397.894 223.225C397.95 219.45 404.371 220.746 404.334 223.979ZM396.634 198.487C397.272 195.694 408.492 191.81 408.187 196.677C408.033 199.117 395.28 204.424 396.634 198.487ZM281.611 293.192C280.353 294.706 278.567 295.303 277.059 296.464C275.478 297.682 274.348 299.262 272.968 300.691C269.176 304.616 264.611 307.84 260.52 311.445C253 318.073 245.795 325.197 237.457 330.818C222.555 340.861 205.275 346.353 188.121 351.163C186.7 351.562 182.606 353.17 181.201 351.972C179.684 350.68 180.455 346.134 180.525 344.415C180.809 337.368 181.63 330.238 181.541 323.201C181.504 320.311 180.659 316.202 182.166 313.557C183.848 310.604 188.544 309.74 191.449 308.628C200.279 305.25 208.785 299.551 216.585 294.273C226.173 287.784 235.857 281.188 245.724 275.131C255.391 269.197 266.054 265.223 276.837 261.834C277.337 262.884 272.192 266.266 271.603 266.741C268.782 269.014 265.713 271.371 263.619 274.372C262.136 276.496 260.616 281.304 264.71 281.427C266.694 281.487 269.628 279.565 271.427 278.944C274.399 277.917 277.462 277.197 280.571 276.728C277.898 279.674 268.839 284.965 270.487 289.864C272.086 294.619 281.337 289.071 284.521 289.071C283.999 290.729 282.687 291.898 281.611 293.192ZM172.327 306.461C166.403 308.547 160.331 309.733 154.217 311.079C148.389 312.362 143.002 313.33 137.033 312.578C128.791 311.541 119.671 308.124 118.626 298.749C117.387 287.642 125.224 277.436 131.952 269.467C140.141 259.772 149.337 251.104 159.303 243.256C169.257 235.415 180.001 228.503 191.258 222.667C199.822 218.228 209.493 215.532 218.548 212.2C220.271 211.567 225.035 209.339 226.647 211.185C227.949 212.677 226.177 215.164 225.583 216.55C224.425 219.252 224.266 221.972 223.967 224.873C222.632 237.828 221.025 250.779 220.286 263.789C220.08 267.415 219.717 271.208 219.928 274.837C220.045 276.846 221.09 279.406 220.394 281.368C219.057 285.14 212.932 287.637 209.686 289.322C203.875 292.338 197.721 294.589 191.851 297.474C185.403 300.642 179.126 304.067 172.327 306.461ZM254.486 222.284C256.112 222.061 258.548 221.618 259.998 222.672C261.888 224.047 261.392 225.961 259.646 226.958C258.267 227.746 255.04 227.962 253.678 227.247C251.357 226.028 251.75 222.662 254.486 222.284ZM263.492 252.283C262.178 254.473 257.375 255.91 257.794 251.822C258.152 248.321 265.912 248.248 263.492 252.283ZM261.709 190.565C263.821 191.384 267.655 192.085 268.281 194.805C268.864 197.337 266.468 197.17 264.738 196.473C263.316 195.901 256.979 190.522 261.709 190.565ZM592.672 287.142C591.439 282.336 592.378 277.015 591.697 272.092C591.037 267.321 589.848 262.936 588.143 258.438C584.367 248.483 580.041 239.521 573.92 230.783C562.391 214.329 549.016 199.836 532.866 187.818C516.921 175.953 499.265 166.311 480.562 159.553C460.729 152.386 440.765 149.892 419.85 148.518C413.604 148.109 407.364 147.623 401.154 146.833C396.615 146.255 390.925 145.545 386.437 146.936C383.617 147.811 382.042 150.272 385.114 151.887C387.291 153.033 390.142 153.17 392.547 153.474C389.642 162.713 384.915 171.984 377.423 178.346C370.11 184.557 360.323 186.686 351.093 188.262C346.088 189.115 340.484 189.776 335.401 189.408C332.187 189.176 329.68 187.686 328.383 191C327.483 193.301 327.058 195.827 325.871 192.352C324.468 188.242 323.78 188.268 319.415 187.101C310.49 184.714 300.258 182.536 292.471 177.375C284.393 172.02 281.583 163.356 277.074 155.289C275.958 153.295 272.594 149.259 274.313 146.975C275.885 144.885 280.997 145.094 283.338 144.876C285.809 144.646 288.294 144.636 290.773 144.54C292.209 144.484 295.098 145.073 294.52 142.926C293.648 139.69 284.31 140.105 281.99 140.052C277.678 139.955 273.306 140.055 269.015 140.53C247.739 142.886 226.272 147.241 205.684 153.049C165.74 164.316 127.053 185.077 97.9019 214.988C69.9198 243.699 61.0546 291.477 78.257 328.136C87.1967 347.188 106.598 355.014 125.405 361.335C135.325 364.669 145.829 367.277 156.374 366.648C161.434 366.346 166.236 364.982 171.172 363.954C173.324 363.506 175.773 362.791 177.984 362.971C179.658 363.108 181.265 364.646 182.835 363.829C183.949 363.249 184.434 361.584 185.795 360.875C187.43 360.024 189.412 359.716 191.178 359.287C196.085 358.094 200.837 356.159 205.634 354.572C210.595 352.931 215.276 350.818 220.035 348.681C222.439 347.602 228 343.214 229.566 346.422C230.28 347.886 229.976 350.709 230.15 352.245C230.455 354.93 230.813 357.609 231.204 360.283C232.066 366.17 233.098 372.032 234.156 377.887C236.065 388.451 238.525 398.565 242.638 408.502C245.922 416.437 248.806 425.431 254.904 431.743C257.566 434.498 261.199 435.738 265.017 434.872C269.361 433.887 271.523 429.938 274.159 426.744C279.961 419.717 289.538 414.333 298.383 412.395C309.213 410.022 319.762 413.493 330.1 416.444C341.034 419.565 352.166 422.539 362.899 426.29C372.9 429.787 383.699 434.951 394.546 434.502C404.005 434.11 412.84 426.404 419.661 420.53C426.513 414.63 435.079 405.992 444.931 406.687C449.823 407.032 454.281 409.394 459.045 410.355C464.276 411.409 469.842 411.559 475.161 411.952C481.765 412.44 496.537 410.716 498.98 402.764C499.342 401.584 499.345 399.155 497.788 398.683C496.357 398.25 495.626 399.925 494.269 399.848C491.51 399.693 489.354 394.877 487.838 393.012C481.721 385.486 473.33 379.872 466.465 373.072C458.714 365.395 452.097 356.093 446.256 346.919C448.897 346.232 451.746 347.373 454.301 347.915C457.406 348.574 460.432 349.369 463.492 350.213C466.864 351.142 470.285 351.781 473.707 352.49C476.261 353.017 479.651 353.177 481.956 354.459C483.968 355.579 485.091 356.781 487.589 357.106C490.13 357.436 492.738 357.158 495.29 357.14C502.193 357.094 509.081 356.965 515.951 356.235C540.227 353.653 565.96 343.374 580.557 322.976C584.528 317.427 587.726 311.28 589.748 304.758C591.325 299.665 594.045 292.489 592.672 287.142Z" fill="black"/>
<path fill-rule="evenodd" clip-rule="evenodd" d="M364.983 52.1094C371.363 52.1998 377.342 54.0935 383.287 56.2463C388.514 58.1393 394.087 59.8906 398.314 63.669C405.917 70.4657 407.898 81.7194 409.142 91.3476C410.694 103.362 405.529 113.442 401.183 124.312C397.117 134.478 389.656 142.713 380.787 148.989C376.14 152.276 371.005 154.26 365.632 156C360.174 157.767 354.889 160.134 349.05 160.125C340.182 160.112 328.83 155.896 325.052 147.151C323.333 143.169 325.007 142.454 328.448 144.618C333.441 147.758 338.253 151.146 344.087 152.539C355.401 155.241 368.952 151.055 378.873 145.532C388.79 140.011 395.448 131.716 399.898 121.388C404.387 110.969 406.132 100.702 404.4 89.4697C402.933 79.9507 400.014 71.2558 391.445 66.0885C372.946 54.9349 348.022 55.8335 331.572 70.3286C329.315 72.3157 327.085 74.2493 324.76 76.1468C323.282 77.3527 321.542 78.7998 321.757 80.8855C321.94 82.6715 325.745 89.5578 321.163 87.4427C317.45 85.7275 315.432 82.3747 310.934 81.9597C306.146 81.5175 300.434 85.1995 299.002 89.8335C297.636 94.2552 300.072 100.305 303.888 102.841C306.251 104.411 308.851 104.169 311.534 104.106C312.866 104.074 316.573 103.641 317.454 105.05C319.014 107.543 313.512 110.163 311.737 110.714C307.417 112.056 302.311 110.477 299.828 106.616C297.303 102.692 295.575 98.1495 295.227 93.474C294.895 88.9944 295.91 84.459 298.55 80.7808C301.358 76.8691 307.082 72.4837 312.214 73.8425C314.441 74.4323 316.23 76.7358 318.416 77.1735C319.796 77.4492 319.215 77.6465 320.358 76.6228C321.084 75.9735 321.769 74.7751 322.439 74.0052C326.29 69.5791 330.099 64.8554 334.812 61.3128C343.264 54.9605 354.498 51.9603 364.983 52.1094ZM341.611 139.863C342.611 137.517 344.447 141.702 344.99 142.402C346.065 143.786 348.592 144.862 348.483 146.904C348.303 150.274 343.714 149.649 342.184 147.891C340.442 145.889 340.625 142.18 341.611 139.863ZM374.213 123.906C376.689 127.768 373.672 131.937 371.715 135.355C369.843 138.623 368.105 142.318 365.926 145.39C362.31 150.491 354.441 144.973 354.207 139.73C354.029 135.717 356.869 137.464 358.691 138.963C360.568 140.507 361.457 140.891 363.424 139.205C367.38 135.811 369.158 130.136 371.893 125.84C372.436 124.988 373.418 124.476 374.213 123.906ZM381.271 125.148C381.909 127.016 380.57 131.964 384.293 131.47C386.35 131.196 386.789 128.241 387.871 126.952C391.507 122.616 390.392 130.816 389.442 132.869C387.347 137.392 381.485 140.508 378.577 134.77C377.495 132.635 377.5 129.941 378.05 127.647C378.349 126.397 380.093 121.699 381.271 125.148ZM348.072 116.303C347.742 118.482 345.696 122.823 348.194 124.382C350.392 125.754 354.22 122.775 355.913 121.53C357.672 120.237 361.658 116.528 361.814 121.144C361.894 123.497 359.541 126.32 357.863 127.675C354.28 130.566 346.838 133.159 344.198 127.718C342.76 124.754 343.547 120.534 344.497 117.548C345.268 115.127 348.868 111.039 348.072 116.303ZM395.053 104.372C396.51 106.067 399.965 109.863 398.087 112.276C395.89 115.097 392.322 109.922 390.915 108.481C389.647 107.184 386.98 103.489 388.117 101.529C390 98.2858 393.773 102.884 395.053 104.372ZM372.141 97.0757C376.906 100.183 370.641 102.42 367.927 102.699C364.642 103.034 360.443 103.256 357.426 101.643C353.15 99.356 354.575 95.9014 358.72 95.0744C362.97 94.227 368.443 94.6639 372.141 97.0757ZM310.197 87.1839C313.701 87.8664 317.703 88.7546 318.897 92.5786C320.129 96.5307 318.359 97.8422 314.78 96.9525C311.468 96.1291 306.522 95.3004 304.65 92.0626C302.413 88.1941 306.948 86.5519 310.197 87.1839Z" fill="black"/>
<path fill-rule="evenodd" clip-rule="evenodd" d="M117.398 172.103C116.222 175.904 110.27 178.425 107.302 180.736C96.9212 188.82 86.777 197.238 77.3919 206.464C72.5206 211.253 68.8335 217.046 64.6093 222.372C63.5786 223.672 61.7527 226.584 59.7313 226.31C57.5134 226.011 57.0651 222.187 57.1358 220.517C57.378 214.823 62.5735 209.323 66.2787 205.402C70.4465 200.993 74.9024 196.696 79.4532 192.682C84.4636 188.262 89.9006 184.463 95.4414 180.743C100.882 177.091 106.099 172.872 111.757 169.563C114.422 168.005 118.848 167.413 117.398 172.103ZM480.278 136.002C484.611 136.139 488.839 137.562 492.926 138.882C501.915 141.788 510.477 145.819 518.919 150.032C533.72 157.417 547.964 166.353 561.02 176.512C563.75 178.635 566.548 180.356 569.515 182.092C571.415 183.204 574.123 184.561 574.855 186.828C576.714 192.59 567.331 186.807 566 185.98L564.127 184.817C536.347 167.582 508.6 150.837 477.177 140.953C475.503 140.427 474.983 138.932 475.861 137.45C476.813 135.845 478.668 135.951 480.278 136.002ZM116.133 148.061C115.933 149.816 113.947 150.215 112.609 150.778C107.613 152.879 102.493 154.67 97.5105 156.805C88.2635 160.768 79.7717 166.52 70.12 169.528C67.9144 170.216 67.589 167.988 68.1794 166.471C68.8371 164.779 70.8125 163.591 72.2411 162.612C76.3624 159.786 81.0365 157.754 85.6131 155.791C90.1505 153.843 94.8223 152.37 99.4745 150.737C103.798 149.219 108.817 146.395 113.46 146.186L113.663 146.176C115.14 146.101 116.367 146.001 116.133 148.061ZM488.165 121.409C483.747 120.165 487.921 117.365 490.546 117.562C493.475 117.782 496.306 119.166 499.084 120.001C507.576 122.553 515.448 125.345 523.381 129.307C524.564 129.898 529.777 132.702 526.329 133.944C523.939 134.804 518.359 131.113 516.307 130.228C507.291 126.336 497.604 124.066 488.165 121.409Z" fill="black"/>
<path fill-rule="evenodd" clip-rule="evenodd" d="M312.056 130.471C312.608 128.849 319.438 111.12 316.765 110.585C313.933 110.018 310.148 120.305 309.327 122.163C306.293 129.027 304.497 136.392 303.089 143.754C302.109 148.881 301.247 154.132 301.591 159.373C301.854 163.401 303.516 164.011 306.255 166.479C306.255 154.245 308.112 142.05 312.056 130.471Z" fill="black"/>
</svg>
