<svg width="37" height="37" viewBox="0 0 37 37" fill="none" xmlns="http://www.w3.org/2000/svg">
<path d="M30.9104 16.9583H6.08958C5.28072 16.9583 4.625 17.6141 4.625 18.4229V18.5771C4.625 19.386 5.28072 20.0417 6.08958 20.0417H30.9104C31.7193 20.0417 32.375 19.386 32.375 18.5771V18.4229C32.375 17.6141 31.7193 16.9583 30.9104 16.9583Z" fill="#1B4965"/>
<path d="M30.9104 24.6667H6.08958C5.28072 24.6667 4.625 25.3224 4.625 26.1313V26.2854C4.625 27.0943 5.28072 27.75 6.08958 27.75H30.9104C31.7193 27.75 32.375 27.0943 32.375 26.2854V26.1313C32.375 25.3224 31.7193 24.6667 30.9104 24.6667Z" fill="#1B4965"/>
<path d="M30.9104 9.25H6.08958C5.28072 9.25 4.625 9.90572 4.625 10.7146V10.8688C4.625 11.6776 5.28072 12.3333 6.08958 12.3333H30.9104C31.7193 12.3333 32.375 11.6776 32.375 10.8688V10.7146C32.375 9.90572 31.7193 9.25 30.9104 9.25Z" fill="#1B4965"/>
</svg>
