<svg width="608" height="456" viewBox="0 0 608 456" fill="none" xmlns="http://www.w3.org/2000/svg">
<circle cx="312" cy="227" r="184" fill="#CAE9FF"/>
<path fill-rule="evenodd" clip-rule="evenodd" d="M259.347 183.778C253.036 184.18 246.674 184.016 240.357 183.816C239.735 183.795 238.247 183.506 237.868 183.878C237.431 184.306 237.524 186.665 237.452 187.25C236.907 191.676 236.361 196.104 235.815 200.53C235.564 202.563 235.314 204.596 235.063 206.628C234.992 207.207 234.284 209.705 234.622 210.207C235.237 211.119 239.637 211.327 240.796 211.55L254.607 214.21C255.907 214.461 259.226 214.52 259.829 215.547C260.212 216.199 259.978 217.964 260.023 218.703L260.399 224.805C260.891 232.797 261.383 240.789 261.874 248.781C271.648 247.995 281.422 247.21 291.195 246.424C293.573 246.233 295.951 246.042 298.329 245.851C298.895 245.805 300.082 245.925 300.545 245.612C301.554 244.928 302.414 242.004 302.959 240.953C304.347 238.275 305.735 235.596 307.123 232.918C308.461 230.336 309.799 227.755 311.136 225.174C311.479 224.513 312.334 223.411 312.313 222.689C312.288 221.875 311.074 220.417 310.695 219.721C309.583 217.682 308.472 215.642 307.359 213.603C301.855 203.504 296.352 193.406 290.848 183.308C290.568 182.796 289.946 180.935 289.4 180.652C288.34 180.103 284.632 181.207 283.49 181.338C275.462 182.254 267.413 183.263 259.347 183.778Z" fill="#5FA8D3"/>
<path fill-rule="evenodd" clip-rule="evenodd" d="M166.25 166.43C168.201 168.745 170.152 171.06 172.104 173.375C177.277 166.989 182.451 160.603 187.625 154.218C185.031 153.059 182.437 151.899 179.844 150.74C177.542 149.712 177.836 150.201 176.38 152.24C173.003 156.97 169.626 161.7 166.25 166.43Z" fill="black"/>
<path fill-rule="evenodd" clip-rule="evenodd" d="M266.024 317.062C266.016 320.426 266.009 323.792 266 327.156C276.292 326.649 286.584 326.143 296.875 325.636C296.408 324.224 295.94 322.812 295.472 321.401C295.107 320.298 294.645 316.966 293.758 316.226C292.788 315.418 288.523 316.252 287.22 316.298C280.155 316.553 273.089 316.807 266.024 317.062Z" fill="black"/>
<path fill-rule="evenodd" clip-rule="evenodd" d="M241.507 62.3438C229.484 69.9392 217.461 77.5351 205.438 85.1305C208.092 88.2352 210.746 91.3398 213.4 94.4445C214.036 95.188 214.149 95.6588 214.876 95.5864C215.722 95.5024 217.146 94.1743 217.851 93.7349C226.374 88.4298 234.897 83.1248 243.42 77.8202C245.998 76.2149 248.577 74.6097 251.156 73.0044C247.94 69.4509 244.723 65.8973 241.507 62.3438Z" fill="black"/>
<path fill-rule="evenodd" clip-rule="evenodd" d="M520.852 181.06C520.418 177.53 518.638 173.94 517.335 170.67C515.8 166.817 514.183 162.996 512.528 159.194C511.48 156.786 511.1 157.378 508.359 157.486C505.155 157.611 501.952 157.736 498.75 157.861C501.216 166.815 503.682 175.768 506.148 184.721C506.575 186.271 507.265 192.081 508.61 192.866C509.076 193.138 510.685 192.788 511.213 192.768C512.724 192.711 514.235 192.655 515.746 192.598C517.799 192.521 519.853 192.444 521.906 192.367C521.62 188.594 521.314 184.817 520.852 181.06Z" fill="black"/>
<path fill-rule="evenodd" clip-rule="evenodd" d="M317.44 407.759C311.93 406.367 305.935 407.686 300.381 407.725C297.111 407.748 293.847 407.53 290.577 407.698C289.482 407.755 284.472 407.609 284.301 408.268C284.17 408.774 285.167 410.048 285.552 410.258C286.634 410.848 287.395 410.09 288.486 409.809C291.445 409.046 294.904 409.517 297.944 409.372C301.124 409.22 304.303 409.031 307.483 408.885C310.652 408.739 314.694 409.396 317.44 407.759ZM47.4553 122.121C47.0325 121.152 46.8587 119.614 45.8874 119.008C44.9877 118.446 43.1022 118.856 42.0624 118.842C39.8514 118.812 35.0508 118.897 33.6063 120.91C31.8502 123.357 37.0165 125.101 38.7394 125.055C41.7331 124.974 44.4568 122.674 47.4553 122.121ZM102.493 91.4076C102.72 90.7879 101.921 90.3785 101.343 90.181C99.8727 89.679 98.9056 90.5144 97.6119 91.1427C94.3451 92.73 90.7933 93.779 87.3569 94.9258C84.3648 95.9239 81.5893 97.3229 78.6555 98.4467C76.5754 99.2436 72.1853 99.0884 70.9873 101.099C68.6223 105.071 74.8176 102.092 75.9093 101.706C79.042 100.602 82.3762 99.9211 85.4468 98.6587C88.4021 97.4438 91.4155 96.2081 94.3402 94.8927C95.6746 94.2922 97.0014 93.7827 98.3619 93.2583C99.6348 92.768 101.139 91.5371 102.493 91.4076ZM191.894 160.243C191.113 159.764 187.914 157.093 186.839 157.446C186 157.721 185.061 160.79 184.537 161.596C181.917 165.63 179.092 169.498 176.282 173.4C177.529 174.071 178.776 174.741 180.023 175.411C182.565 169.387 187.466 164.879 191.894 160.243ZM240.404 181.775C244.417 181.785 248.392 181.281 252.4 181.337C256.891 181.4 261.304 181.521 265.79 181.155C270.205 180.793 274.603 180.776 279.018 180.507C280.406 180.423 288.139 179.833 283.609 177.621C282.085 176.878 280.253 177.805 278.597 178.138C276.679 178.526 274.744 178.671 272.805 178.904C270.957 179.127 268.995 179.741 267.132 179.696C265.177 179.648 263.709 179.299 261.744 179.581C257.669 180.168 253.613 179.84 249.541 179.462C246.733 179.201 240.57 177.623 240.404 181.775ZM349.599 410.254C352.182 408.171 356.267 409.073 359.335 408.409C362.724 407.675 360.055 404.084 358.756 402.173C357.402 400.179 355.362 396.195 353.085 399.145C350.707 402.228 350.426 406.574 349.599 410.254ZM268.306 319.76C268.22 321.632 267.293 323.558 269.24 324.2C271.108 324.817 274.316 323.88 276.252 323.713C278.776 323.495 281.259 323.078 283.776 322.819C284.899 322.702 286.027 322.616 287.157 322.72C287.934 322.79 289.809 323.635 290.504 323.286C291.358 322.856 291.772 320.54 291.074 319.647C290.318 318.679 285.752 319.639 284.118 319.763C278.795 320.166 273.607 319.521 268.306 319.76ZM267.98 313.753C270.431 312.744 273.343 313.217 275.923 313.203C278.959 313.187 281.96 313.353 284.989 313.55C286.329 313.637 290.239 314.63 291.363 313.773C291.955 313.322 292.167 309.458 291.666 308.866C290.848 307.898 288.28 309.063 287.229 309.219C284.412 309.638 281.538 309.627 278.696 309.601C276.036 309.577 273.368 309.459 270.71 309.453C267.56 309.445 267.986 311.054 267.98 313.753ZM183.677 155.333C182.676 154.752 179.39 152.085 178.162 152.49C177.118 152.835 176.009 156.018 175.385 157.018C174.197 158.924 172.942 160.792 171.71 162.671C170.923 163.872 168.824 166.042 169.182 167.666C169.373 168.53 171.121 170.023 172.004 169.761C172.915 169.491 174.415 166.102 174.921 165.434C177.657 161.82 181.094 159.101 183.677 155.333ZM502.331 159.246C505.838 166.12 506.289 173.892 508.189 181.27C508.631 182.987 509.313 184.681 509.688 186.408C509.897 187.371 509.512 189.02 510.051 189.838C511.4 191.889 517.638 191.238 518.984 189.433C519.775 188.373 519.161 187.273 518.824 186.172C518.37 184.685 518.588 183.391 518.324 181.907C517.797 178.933 515.117 175.931 513.845 173.186C512.457 170.187 511.818 166.58 509.829 163.901C508.497 162.109 504.762 158.41 502.331 159.246ZM273.66 427.383C278.352 426.766 285.733 425.371 285.487 419.065C285.243 412.796 277.025 411.683 272.45 411.133C271.109 410.972 270.963 410.895 269.602 411.708C268.666 412.266 267.735 412.863 266.863 413.514C265.164 414.783 263.24 416.51 262.877 418.723C261.957 424.344 269.542 426.885 273.66 427.383ZM246.837 71.29C248.966 71.5153 246.134 69.4464 245.597 69.1959C243.969 68.4354 242.158 68.5735 240.429 68.8625C236.244 69.562 232.54 73.0754 228.964 75.2476C225.178 77.5472 221.441 80.1476 217.492 82.1551C215.687 83.0734 214.194 83.8526 212.694 85.2221C211.93 85.9205 211.665 86.4049 210.637 86.4043C210.067 86.4043 208.796 85.0723 208.19 85.8429C206.496 87.9938 215.029 88.6895 215.92 88.5439C220.369 87.8161 224.228 86.1282 228.046 83.8387C231.944 81.5022 236.083 79.605 240 77.3305C241.693 76.3469 243.143 75.0427 244.688 73.8744C244.908 73.7069 245.308 73.1428 245.532 72.9287C245.891 73.0342 246.191 72.941 246.433 72.6494C246.559 72.1934 246.693 71.7401 246.837 71.29ZM332.905 407.818C328.577 409.354 321.503 410.55 319.473 415.626C317.173 421.376 327.51 425.476 331.567 425.788C335.828 426.116 343.402 424.391 343.996 419.091C344.337 416.041 341.919 414.095 339.66 412.573C337.35 411.017 334.053 410.684 332.905 407.818ZM56.0098 87.5528C52.9509 87.9039 50.8719 88.2057 48.4352 90.1907C46.4134 91.8384 44.7477 93.5028 43.9239 96.0443C42.0191 101.918 46.7267 106.962 52.7739 106.278C53.4406 106.202 54.0917 105.956 54.7685 106.024C55.3902 106.086 55.8248 106.533 56.3503 106.622C57.589 106.832 57.829 106.615 58.8453 105.651C60.9184 103.684 62.999 101.523 64.1473 98.8695C66.9127 92.478 62.7542 87.6673 56.0098 87.5528ZM125.555 75.3108C125.852 68.6955 115.782 67.6086 111.139 68.1117C105.866 68.6832 97.2169 74.036 99.2248 80.6031C100.992 86.3834 110.962 85.943 115.271 84.7678C116.193 84.5168 117.626 83.9709 118.533 84.1555C119.896 84.4317 119.962 85.5534 121.246 84.5382C122.053 83.8997 122.782 82.0411 123.352 81.1254C124.487 79.301 125.074 77.399 125.555 75.3108ZM267.093 346.975C266.954 348.391 266.413 350.212 267.937 350.886C268.88 351.302 271.494 350.846 272.441 350.88C276.391 351.02 280.446 350.706 284.372 351.02C285.533 351.113 289.003 352.291 290.036 351.501C291.046 350.729 290.258 348.314 290.191 347.232C289.916 342.82 290.507 338.531 290.697 334.143C290.748 332.965 291.234 330.102 290.331 329.229C289.23 328.166 286.79 328.781 285.479 328.914C281.389 329.328 277.181 329.934 273.069 329.943C271.941 329.945 269.442 329.145 268.463 329.567C266.96 330.215 267.313 332.478 267.231 333.923C266.979 338.278 266.813 342.615 267.093 346.975ZM175.139 149.458C169.777 145.485 164.218 141.718 158.856 137.855C156.946 136.48 155.527 134.517 153.738 133.174C152.616 132.332 152.273 131.965 150.74 132.778C148.967 133.719 147.319 135.196 145.684 136.362C144.311 137.342 142.931 138.313 141.556 139.289C140.282 140.193 139.855 140.398 140.758 141.899C142.347 144.54 145.646 146.924 147.803 149.096C153.127 154.457 158.327 160.003 164.308 164.634C166.364 158.636 170.617 153.758 175.139 149.458ZM235.254 56.8677C225.944 53.1895 225.238 40.735 221.983 32.7963C220.974 38.2309 223.649 47.0634 219.133 51.3314C216.356 53.9559 214.747 50.2519 213.256 48.236C210.985 45.1662 208.547 42.2313 206.38 39.0835C207.045 42.881 208.953 47.1431 208.596 51.0049C208.316 54.0367 206.378 58.1896 203.557 54.7517C201.621 52.3905 199.141 50.1818 196.883 48.0877C194.167 45.5703 191.07 43.9439 188.118 41.7968C189.261 47.476 191.439 52.5173 194.651 57.3237C196.299 59.7898 198.103 62.1584 199.658 64.6855C200.929 66.7513 201.529 69.3206 203.213 71.0754C204.787 72.7147 207.101 74.0237 208.985 75.2829C211.668 77.0758 212.311 76.5657 214.778 74.8618C219.553 71.564 224.738 68.9235 229.545 65.6675C228.655 64.4912 227.234 63.3294 227.281 61.7281C227.318 60.432 228.31 59.2519 229.638 59.4071C230.679 59.5286 231.16 60.6187 232.318 60.2511C233.297 59.9396 234.635 57.6025 235.254 56.8677ZM555.813 156.05C551.499 156.559 547.471 158.097 543.05 157.816C541.26 157.703 539.925 158.033 539.139 156.237C538.511 154.802 539.154 152.622 537.182 152.231C535.721 151.942 533.912 153.3 532.832 154.068C530.891 155.448 529.171 156.673 526.973 157.648C523.077 159.376 519.122 160.879 514.864 161.068C515.894 164.196 516.979 167.33 518.406 170.303C519.773 173.153 521.119 175.578 521.526 178.753C521.699 180.112 521.699 181.593 523.033 182.19C524.342 182.777 526.674 182.294 528.091 182.319C531.334 182.377 534.58 182.453 537.824 182.46C540.296 182.465 542.755 183.055 545.162 183.02C548.154 182.977 551.54 181.676 554.458 181.059C559.989 179.889 567.727 179.163 572.134 175.391C568.055 174.75 563.9 175.186 559.893 176.065C558.058 176.468 553.85 178.564 552.621 176.465C551.156 173.965 554.022 170.513 556.045 169.351C558.327 168.04 561.733 168.182 563.342 165.818C560.304 166.074 557.102 166.186 554.165 167.08C551.914 167.765 549.01 169.715 548.119 166.337C546.676 160.865 552.05 158.27 555.813 156.05ZM233.859 202.899C234.622 195.656 236.021 188.335 236.145 181.042C236.198 177.892 232.638 178.455 230.146 177.56C226.524 176.259 222.974 174.719 219.418 173.251C215.873 171.788 212.309 170.376 208.752 168.943C205.523 167.643 202.423 165.676 199.167 164.52C197.395 163.891 197.257 164.505 196.228 166.131C195.228 167.713 194.177 169.262 193.089 170.785C190.804 173.985 188.358 177.065 185.858 180.098C193.381 184.627 201.234 188.812 208.996 192.917C216.918 197.106 225.535 199.643 233.859 202.899ZM394.563 175.42C398.542 175.429 402.417 174.857 406.379 174.735C410.296 174.615 414.083 174.787 417.968 174.889C421.698 174.986 425.356 175.743 429.076 175.919C429.981 175.962 430.921 175.958 431.821 176.059C432.726 176.16 433.262 176.496 434.102 176.638C436.165 176.988 438.175 176.493 440.257 176.604C447.934 177.014 455.498 178.591 463.177 178.991C471.071 179.402 478.776 180.015 486.633 180.961C490.786 181.462 494.947 181.756 499.118 182.048C499.974 182.108 501.806 182.647 502.275 181.671C502.844 180.486 500.913 176.436 500.557 175.181C500.095 173.55 499.716 171.883 499.095 170.301C498.731 169.377 497.966 166.36 497.229 165.773C496.201 164.956 494.666 165.741 493.467 165.915C491.037 166.266 488.566 166.475 486.123 166.716C482.505 167.073 478.885 167.928 475.27 168.037C471.19 168.159 467.129 167.984 463.054 167.832C454.891 167.526 446.53 167.684 438.409 166.85C429.024 165.886 419.597 165.495 410.19 164.787C407.961 164.619 405.725 164.577 403.493 164.443C401.897 164.347 398.637 163.226 397.146 163.746C395.63 164.274 395.918 166.068 395.746 167.462C395.419 170.123 394.995 172.775 394.563 175.42ZM296.846 249.241C291.183 250.112 285.628 250.453 279.903 250.617C277.378 250.689 274.869 250.811 272.355 251.063C270.252 251.275 269.073 251.367 268.995 253.669C268.653 263.767 268.104 273.756 267.794 283.857C267.618 289.56 267.82 295.271 267.8 300.976C267.792 303.141 267.349 304.703 269.729 304.955C272.62 305.262 275.654 304.859 278.563 304.887C281.241 304.912 283.919 304.978 286.596 305.036C288.315 305.073 291.503 305.929 292.08 303.847C292.264 303.181 291.933 302.012 291.95 301.276C291.982 299.906 292.151 298.522 292.234 297.152C292.423 294.01 292.561 290.865 292.752 287.723C293.533 274.849 295.632 262.081 296.846 249.241ZM232.007 88.9726C235.742 91.8384 239.99 93.81 243.983 96.3162C245.897 97.5182 247.745 98.8069 249.621 100.067C251.55 101.363 253.792 102.148 255.615 103.588C259.142 106.374 263.507 108.15 267.383 110.568C271.321 113.025 275.246 115.486 279.274 117.795C281.056 118.816 283.005 119.43 284.833 120.352C287.024 121.457 289.011 122.905 291.232 123.96C295.987 126.222 300.734 128.485 305.469 130.79C314.762 135.314 324.287 139.494 333.774 143.593C335.796 144.467 337.922 144.85 340.053 145.366C341.059 145.61 342.335 145.736 343.242 146.22C343.524 146.371 343.823 146.392 344.046 146.645C344.475 147.131 344.111 147.81 344.375 148.172C345.852 150.194 349.955 144.511 350.909 143.134C352.382 141.006 351.785 140.662 349.509 139.779C347.214 138.888 344.898 138.049 342.628 137.097C338.446 135.345 334.169 133.362 330.174 131.215C326.019 128.981 321.691 127.137 317.58 124.807C312.968 122.194 308.393 119.528 303.729 117.008C295.86 112.756 288.632 107.395 280.988 102.78C276.766 100.232 272.798 97.1998 268.715 94.3944C264.729 91.6565 260.951 88.5996 256.881 86.0415C254.642 84.6345 252.314 83.4636 250.222 81.8382C248.658 80.6239 247.097 79.3781 245.137 80.3976C243.019 81.4989 241.02 83.3506 238.963 84.6297C236.641 86.0736 234.325 87.5244 232.007 88.9726ZM405.403 136.362C404.192 135.727 399.74 134.033 401.83 131.959C403.317 130.482 406.833 132.444 408.275 132.933C408.245 130.891 408.248 129.483 407.591 127.536C406.931 125.58 407.114 124.101 408.722 122.619C409.458 121.941 412.127 121.356 412.437 120.466C412.918 119.085 410.523 119.523 409.707 119.33C405.388 118.309 405.649 113.782 405.542 110.316C405.415 106.241 404.462 102.323 401.313 99.6744C399.891 98.4783 399.377 98.4762 397.625 99.2618C396.979 99.5513 396.398 100.017 395.685 100.145C394.677 100.327 394.002 99.6701 393.105 99.7145C391.716 99.7831 390.297 102.082 388.945 102.816C387.193 103.767 385.469 103.483 383.739 104.164C382.199 104.769 380.711 106.411 379.275 107.285C377.319 108.474 377.764 109.641 377.89 111.977C377.994 113.927 377.931 115.206 376.014 115.929C375.396 116.162 374.309 116.058 373.783 116.433C373.006 116.987 373.427 117.403 373.177 118.329C372.542 120.673 371.198 119.243 369.482 118.93C367.392 118.548 365.09 120.023 366.182 122.266C366.572 123.069 367.411 123.8 368.25 124.05C369.243 124.345 370.481 123.532 371.397 123.899C373.732 124.835 371.866 127.052 371.977 128.562C373.394 127.793 373.876 125.589 375.341 128.033C376.4 129.799 375.978 132.481 375.715 134.41C375.105 138.871 373.738 144.336 370.836 147.915C370.418 148.43 369.794 149.398 369.008 149.276C368.355 149.175 368.277 148.327 367.712 148.111C366.5 147.644 364.644 148.335 364.18 149.457C363.395 151.354 363.477 154.136 363.415 156.143C363.343 158.454 363.072 161.068 363.633 163.334C364.59 167.205 368.191 168.552 371.693 169.408C373.646 169.883 375.785 170.439 377.761 169.77C379.917 169.04 381.398 167.082 382.918 165.501C384.06 164.313 386.277 162.961 386.425 161.243C386.495 160.438 385.923 159.329 385.793 158.506C385.586 157.198 385.528 155.877 385.563 154.554C385.626 152.124 386.306 149.653 386.099 147.223C385.885 144.737 384.037 144.559 383.031 142.644C382.431 141.501 382.291 139.722 383.749 139.334C384.597 139.108 386.184 139.751 387.102 139.816C388.502 139.916 389.921 139.938 391.325 139.952C393.913 139.978 395.863 139.845 398.206 138.718C400.617 137.559 402.77 136.836 405.403 136.362ZM345.397 408.715C345.495 406.596 345.79 404.477 346.446 402.454C347.004 400.735 348.201 399.229 348.403 397.453C348.823 393.745 347.594 390.262 344.02 388.924C340.555 387.627 336.801 387.648 333.183 387.892C331.082 388.033 329.301 387.314 327.24 387.409C325.07 387.509 323.155 387.211 321 386.983C316.997 386.557 313.586 384.795 309.699 384.05C307.797 383.685 307.139 384.496 305.975 385.835C304.692 387.31 303.248 388.55 301.623 389.633C299.126 391.298 294.658 394.356 294.419 389.195C294.219 384.864 298.558 381.654 301.237 378.849C298.523 377.696 298.755 373.413 295.602 375.136C294.233 375.884 293.153 376.99 291.888 377.888C290.825 378.643 288.383 380.745 286.984 380.581C285.009 380.35 284.798 377.544 285.094 375.986C285.631 373.158 288.587 371.529 290.686 369.868C291.954 368.864 293.851 368.074 294.929 366.895C296.074 365.642 295.819 364.238 295.781 362.663C295.764 361.947 296.301 359.247 296.009 358.628C295.559 357.674 294.002 357.927 292.893 357.828C290.834 357.644 288.79 357.283 286.739 357.089C285.131 356.937 283.586 357.3 281.977 357.358C277.912 357.507 273.801 357.296 269.731 357.284C268.993 357.282 265.898 356.753 265.384 357.392C264.94 357.943 265.363 360.495 265.361 361.155C265.347 365.251 265.361 369.341 265.483 373.435C265.723 381.513 265.453 389.808 263.794 397.748C263.494 399.187 262.548 400.781 264.006 401.489C265.128 402.034 268.121 401.187 269.344 401.108C273.311 400.848 277.32 401.104 281.265 400.815C288.133 400.313 295.237 400.775 302.241 400.937C311.561 401.155 320.828 402.162 330.144 402.401C334.194 402.505 338.312 401.766 342.309 401.888C343.88 401.936 344.325 402.334 344.414 404.017C344.519 406.018 343.649 407.092 345.397 408.715ZM149.848 123.042C146.268 116.995 142.894 110.828 139.318 104.78C137.702 102.048 135.888 99.4518 134.085 96.8434C133.161 95.507 132.14 94.1568 131.434 92.6851C130.787 91.3375 130.594 89.7882 129.833 88.4947C128.391 91.6811 125.298 93.429 122.06 94.5694C119.544 95.4557 117.09 96.7245 114.465 97.2715C107.601 98.7036 100.81 101.789 94.0735 104.026C79.7695 108.774 64.4803 111.382 50.7088 117.552C55.4079 122.204 53.9479 132.122 61.7887 133.622C64.908 134.219 68.1658 133.259 71.1515 132.436C74.9214 131.398 78.6939 130.367 82.4676 129.339C86.562 128.224 90.6976 127.358 94.8257 126.384C96.8988 125.895 98.9853 125.555 101.063 125.114C102.793 124.747 102.814 124.388 103.721 122.757C105.254 120.002 108.098 117.183 110.504 120.818C111.483 122.299 111.276 124.158 112.135 125.625C112.868 126.879 114.436 127.529 115.538 128.376C116.303 126.216 117.217 123.291 118.907 121.632C120.752 119.822 122.584 121.278 123.248 123.405C124.045 125.962 122.87 129.073 122.355 131.588C122.104 132.818 121.627 134.23 121.916 135.491C122.3 137.167 123.76 138.894 124.629 140.348C132.759 134.289 141.065 128.101 149.848 123.042ZM308.787 224.847C306.407 221.62 303.89 218.761 302.103 215.145C300.193 211.282 298.649 207.12 296.611 203.355C294.589 199.615 292.727 195.805 290.88 191.966C289.591 189.286 288.124 182.853 284.433 183.014C282.589 183.095 280.708 183.759 278.853 183.941C276.679 184.155 274.495 184.143 272.324 184.408C267.56 184.991 262.923 186.033 258.115 186.315C253.983 186.557 249.799 186.681 245.662 186.502C244.535 186.453 241.601 185.575 240.556 186.078C239.338 186.664 239.745 188.952 239.642 190.123C239.253 194.527 238.658 198.935 237.989 203.303C237.875 204.048 236.723 207.771 237.239 208.4C238.033 209.371 241.448 208.722 242.562 208.808C246.955 209.146 251.272 210.15 255.648 210.635C257.867 210.881 260.09 210.938 262.322 210.946C264.49 210.953 267.653 210.355 269.711 211.098C271.033 211.576 271.784 212.7 271.357 214.131C270.886 215.71 269.355 216.062 267.936 216.358C266.895 216.574 263.876 216.453 263.22 217.41C262.511 218.446 263.753 220.399 264.104 221.381C264.775 223.265 264.394 224.074 264.344 225.916C264.291 227.855 265.414 229.561 265.264 231.522C265.118 233.438 265.039 234.968 265.225 236.922C265.389 238.639 265.275 240.519 265.516 242.187C266.074 246.046 274.418 243.711 277.008 243.653C282.36 243.534 287.734 244.4 293.067 244.143C294.636 244.068 298.273 244.352 299.379 243.02C300.501 241.671 300.679 238.592 301.402 236.923C303.29 232.56 306.105 228.736 308.787 224.847ZM356.448 138.952C356.058 143.429 355.841 146.878 353.159 150.646C350.296 154.67 347.004 154.309 342.484 154.751C338.427 155.149 335.243 156.489 331.985 158.888C328.152 161.709 324.018 164.051 319.934 166.479C312.164 171.098 302.897 172.376 294.074 173.748C291.856 174.094 287.761 175.087 290.371 177.716C293.177 180.543 294.749 184.714 296.634 188.25C300.957 196.359 304.271 205.069 309.201 212.835C311.193 215.972 313.576 219.758 316.633 221.973C319.536 224.075 325.362 220.171 328.316 218.879C332.156 217.201 336.185 215.927 339.802 213.856C343.177 211.924 346.611 210.258 350.157 208.667C353.64 207.105 357.012 205.55 360.66 204.411C364.952 203.069 369.486 202.593 373.846 201.424C378.318 200.226 381.848 198.956 385.463 195.991C387.142 194.614 389.189 193.237 389.865 191.06C390.558 188.833 390.048 185.993 389.943 183.71C389.833 181.323 389.462 178.879 389.51 176.492C389.56 174.085 390.74 172.196 391.453 169.96C392.577 166.431 393.857 160.033 390.295 157.656C390.044 161.427 388.714 164.809 387.469 168.346C386.27 171.752 384.3 173.836 381.356 175.822C380.236 176.577 379.024 177.63 377.698 177.973C376.291 178.337 374.323 178.15 372.861 178.166C369.572 178.201 366.009 177.339 363.477 175.122C358.349 170.634 357.23 162.591 357.725 156.21C358.011 152.541 358.616 148.844 360.297 145.533C360.876 144.394 362.026 143.179 361.384 141.846C360.712 140.451 357.704 139.606 356.448 138.952ZM255.288 217.141C249.241 216.351 242.943 215.708 237.07 214.002C234.932 213.38 232.354 212.594 232.332 210.031C232.324 209.245 232.913 207.824 232.574 207.084C232.227 206.326 230.061 206.274 229.059 206.075C217.409 203.765 206.588 199.249 196.188 193.594C185.67 187.873 175.954 181.124 166.028 174.458C156.345 167.954 148.299 160.012 140.25 151.659C139.132 150.499 137.985 149.368 136.83 148.244C135.988 147.424 134.818 145.753 133.71 145.308C131.719 144.507 128.936 147.54 127.176 148.442C124.886 149.617 122.155 149.794 120.644 147.32C119.645 145.685 120.574 145.386 120.716 143.848C120.834 142.583 119.968 141.866 119.207 140.986C118.62 142.372 117.839 144.908 115.841 144.592C114.045 144.31 113.847 141.834 113.72 140.422C113.57 138.777 114.083 136.686 112.97 135.354C112.093 134.306 110.382 133.541 109.26 134.49C107.004 136.399 108.467 142.087 105.283 143.504C100.794 145.503 101.232 136.384 101.136 134.561C91.0857 135.673 81.639 140.063 71.577 141.5C67.482 142.085 62.752 141.892 59.1783 139.555C55.8922 137.406 52.4794 132.678 51.0745 129.049C47.7039 131.548 44.1799 133.463 39.8519 132.349C35.4523 131.215 31.5818 128.774 29.9652 124.352C28.3422 119.913 28.8116 116.533 32.8632 114.028C34.521 113.003 35.8318 112.501 37.6564 112.006C39.6766 111.458 42.2356 111.061 44.143 110.193C42.1763 107.319 39.939 104.504 39.0452 101.071C38.037 97.1982 38.54 92.8414 40.1037 89.1797C42.9301 82.5618 50.8751 78.1338 58.0316 79.6462C64.2772 80.9659 68.6966 86.3727 70.4704 92.2864C71.2765 94.9751 70.5688 96.6379 73.8575 95.1833C77.5922 93.5312 80.8606 91.1004 84.7182 89.6426C88.0647 88.3775 91.7144 87.3146 94.815 85.4983C96.4198 84.5585 96.3444 84.4777 95.6901 82.7528C94.8775 80.6106 94.3755 78.616 94.5568 76.288C95.0748 69.6224 100.592 64.8974 106.496 62.7043C113.189 60.2179 121.488 61.1999 126.504 66.573C128.94 69.1836 130.603 72.6146 130.816 76.2066C130.911 77.7988 129.962 80.2194 130.491 81.6873C130.952 82.9648 133.133 83.9441 133.974 85.1654C135.308 87.1038 135.927 89.4238 137.251 91.3953C138.399 93.1025 139.563 94.7958 140.666 96.5335C143.346 100.752 145.859 105.075 148.05 109.57C149.052 111.626 149.993 113.711 150.911 115.807C151.542 117.244 152.062 119.869 153.197 121.013C154.342 122.17 156.05 121.8 157.034 123.265C158.273 125.109 157.096 126.74 156.114 128.346C163.581 130.533 168.166 136.856 174.141 141.489C180.174 146.166 186.794 150.216 193.279 154.226C200.029 158.4 206.655 162.379 214.004 165.412C220.851 168.239 227.47 171.571 234.299 174.433C235.256 174.834 236.002 175.366 236.948 174.743C237.824 174.166 238 172.307 238.915 171.553C241.234 169.644 246.687 170.703 249.447 170.66C253.427 170.598 257.464 170.373 261.441 170.579C262.787 170.648 264.088 171.184 265.407 171.007C267.428 170.735 269.316 170.322 271.42 170.237C273.171 170.165 274.918 170.036 276.672 170.099C277.504 170.129 278.911 170.486 279.657 169.919C280.587 169.214 280.026 167.522 280.662 166.496C281.074 165.832 281.888 165.65 282.287 165.125C282.236 165.192 282.922 164.008 282.732 164.159C283.958 163.192 287.387 162.899 288.835 163.244C289.253 163.343 289.322 164.047 289.848 164.049C290.373 164.051 290.413 163.521 290.784 163.394C291.168 163.262 291.271 162.729 291.786 162.648C292.355 162.559 293.083 163.198 293.699 163.234C294.392 163.274 295.054 162.814 295.699 162.635C296.557 162.397 297.218 162.571 297.932 162.487C299.235 162.332 300.636 162.186 301.989 162.027C303.957 161.797 305.874 161.183 307.795 160.715C308.636 160.51 309.477 160.272 310.346 160.206C311.348 160.129 312.652 160.601 313.598 160.378C314.407 160.188 313.748 159.899 314.45 159.656C315.208 159.393 316.027 159.321 316.796 159.055C318.562 158.444 320.191 157.428 321.778 156.46C325.473 154.204 328.779 151.393 332.432 149.077C331.598 147.863 328.493 147.658 327.18 147.229C325.372 146.638 323.598 145.946 321.83 145.248C317.809 143.661 313.819 141.997 309.83 140.335C302.262 137.182 294.651 134.14 287.419 130.272C280.625 126.638 273.369 123.807 266.632 120.044C263.205 118.129 259.774 116.114 256.442 114.037C253.338 112.103 249.998 110.784 246.782 109.015C240.501 105.56 234.731 101.261 228.426 97.8784C226.937 97.0799 225.283 95.3888 223.676 94.9542C222.295 94.5807 220.894 95.3513 219.645 95.8918C218.323 96.4645 217.082 97.4042 215.598 97.4363C213.964 97.4716 212.093 96.5913 210.551 96.0577C207.686 95.0666 205.197 92.319 204.155 89.458C203.646 88.0591 203.41 86.5049 203.222 85.0332C202.999 83.2891 203.589 81.2383 203.163 79.5793C202.355 76.4239 198.622 73.4612 196.534 71.198C193.942 68.3878 191.695 65.2426 189.649 62.0187C185.074 54.8116 181.9 46.2628 184.45 37.7798C184.839 36.4868 185.532 34.3504 186.676 33.4899C188.265 32.2943 188.945 33.6895 190.318 34.3825C192.025 35.2436 193.644 35.7451 195.244 36.915C197.183 38.3326 198.778 40.0618 200.565 41.6475C200.574 37.9858 200.005 34.7759 200.795 31.1089C201.201 29.2267 202.108 25.3114 204.503 24.9758C206.987 24.6274 208.768 29.1293 209.849 30.7717C211.859 33.8238 214.104 36.6875 216.341 39.5737C216.631 35.0959 216.036 24.4508 221.666 22.6896C226.71 21.1108 229.318 34.7047 230.539 37.7466C231.679 40.5846 233.279 43.3884 235.01 45.9096C236.824 48.5512 238.802 47.2052 241.613 47.3294C244.211 47.4444 245.38 49.2421 245.351 51.7906C245.315 55.015 242.752 57.3703 240.98 59.8031C244.816 61.658 249.784 64.0706 252.076 67.8901C252.584 68.7362 252.934 69.7075 252.966 70.7062C252.996 71.6936 252.093 73.5014 252.561 74.4138C252.904 75.0812 254.061 75.3231 254.677 75.6865C255.951 76.4384 257.082 77.4108 258.341 78.19C266.592 83.2977 274.349 89.4007 282.309 94.7937C289.496 99.6626 297.109 104 304.379 108.867C313.622 115.054 323.341 120.319 333.236 125.405C335.518 126.579 337.635 127.882 339.825 129.196C342.073 130.544 344.755 131.454 347.155 132.545C348.836 133.309 350.669 134.764 352.434 135.24C354.533 135.807 355.418 133.58 357.864 134.157C359.975 134.655 362.276 134.876 363.544 136.776C364.655 138.442 364.552 140.99 366.341 142.067C368.417 143.315 368.998 141.977 369.478 140.244C370.024 138.271 371.565 136.016 369.674 134.596C367.887 133.255 365.356 133.108 363.265 132.611C362.206 132.36 360.801 131.444 359.792 131.361C358.532 131.257 358.237 132.431 357.166 132.433C356.597 132.433 356.096 131.883 355.553 131.708C355.431 131.668 355.11 132.117 354.962 132.076C354.432 131.927 354.389 131.75 353.872 131.537C352.028 130.78 349.59 129.586 350.146 127.284C350.444 126.05 352.467 124.064 351.055 122.931C349.729 121.866 347.947 124.087 347.216 121.865C346.697 120.287 347.963 119.863 346.353 118.564C345.169 117.609 344.078 117.349 344.733 115.598C345.155 114.47 347.348 112.755 346.719 111.394C345.829 109.469 342.443 111.416 342.769 107.937C343.002 105.446 346.135 103.648 346.155 101.197C346.17 99.4427 344.507 99.455 344.074 98.3151C343.647 97.1885 344.037 97.1928 344.661 96.4018C345.124 95.8142 345.425 95.6189 345.771 94.9264C346.192 94.0846 346.918 92.9944 346.645 92.0151C346.4 91.1347 345.369 90.6113 345.11 89.6362C344.133 85.9623 351.893 77.6158 353.87 82.6736C355.338 80.9756 357.263 77.4204 359.856 77.7051C361.425 77.8774 360.754 78.3248 361.299 79.2309C361.694 79.8886 362.79 80.2226 363.101 80.9338C363.716 79.0243 363.063 75.4858 364.772 74.0847C366.438 72.7189 367.485 75.1219 368.193 76.4587C368.649 75.1973 368.942 72.8303 370.514 72.3775C372.197 71.8942 373.247 73.9991 374.066 75.071C374.949 73.8166 376.604 70.1196 378.51 70.5702C379.94 70.9079 380.648 73.2953 381.316 74.3972C382.881 73.3697 385.347 70.8951 387.372 71.1568C389.345 71.411 389.171 73.2605 391.478 72.5038C393.151 71.9547 394.89 70.4964 396.666 70.3872C398.538 70.2721 399.528 71.5844 401.607 71.2659C403.814 70.9283 404.151 70.4145 405.59 72.2164C406.3 73.1059 406.112 73.496 407.344 73.6822C408.387 73.8401 409.299 73.1514 410.392 73.5854C411.2 73.9059 411.765 74.6547 412.103 75.4242C412.503 76.333 412.04 77.908 412.439 78.6229C413.207 79.9983 416.108 78.7846 417.411 79.7398C419.168 81.0291 417.514 82.9862 418.449 84.4146C419.2 85.5614 421.317 85.2692 422.159 86.8169C422.923 88.2186 422.744 90.0713 421.858 91.3702C421.486 91.916 420.44 92.3683 420.195 92.8622C419.69 93.8812 420.114 93.7624 420.407 94.8038C420.97 96.7957 420.52 97.5471 418.985 98.9096C418.097 99.698 417.911 99.4716 417.852 100.669C417.807 101.594 418.593 102.45 418.447 103.485C418.21 105.165 416.557 106.221 416.059 107.873C415.418 109.999 413.667 111.163 412.347 112.913C413.907 113.854 415.958 114.635 416.715 116.402C417.542 118.329 417.389 121.073 416.803 123.029C416.241 124.903 415.038 126.099 413.881 127.586C412.473 129.397 412.593 130.833 412.506 133.043C412.322 137.716 410.317 141.959 405.734 143.443C403.917 144.032 402.275 144.898 400.43 145.447C398.175 146.119 396.524 146.173 394.184 146.041C392.721 145.958 391.008 145.642 390.499 147.192C390.244 147.967 390.337 150.983 390.685 151.672C391.279 152.85 392.964 152.694 393.979 153.713C395.81 155.55 395.292 157.117 398.381 157.16C408.389 157.299 418.366 156.527 428.374 157.251C433.31 157.609 438.14 158.462 443.095 158.713C448.548 158.988 454.016 159.08 459.465 159.412C464.609 159.724 469.642 160.398 474.813 160.132C479.643 159.883 484.282 159.551 489.091 159.018C490.737 158.835 493.286 159.098 494.448 157.839C495.092 157.142 495.241 155.946 495.884 155.178C496.478 154.469 497.284 153.956 498.013 153.402C499.781 152.061 501.447 150.854 503.78 150.898C505.823 150.937 507.452 152.413 509.118 153.499C511.05 154.759 511.851 155.338 514.143 154.849C516.427 154.363 518.522 153.461 520.751 152.797C525.453 151.398 529.858 149.384 534.141 146.997C536.25 145.821 537.737 145.03 540.166 145.738C542.657 146.464 543.365 147.178 543.395 149.765C543.404 150.586 543.091 152.045 544.035 152.519C544.72 152.863 546.228 151.903 546.81 151.651C549.379 150.536 551.901 149.375 554.588 148.561C557.039 147.817 559.521 147.158 561.982 146.448C564.041 145.854 566.787 144.994 568.839 146.1C574.022 148.892 566.395 155.988 564.415 158.349C566.884 157.757 572.185 158.095 573.484 160.745C575.022 163.883 571.94 166.994 570.2 169.274C572.637 170.383 577.555 169.429 578.241 172.922C578.818 175.854 575.768 178.808 573.78 180.523C568.634 184.963 560.653 188.072 553.858 188.13C552.133 188.145 550.453 187.809 548.738 187.727C547.483 187.668 546.35 188.102 545.131 188.103C543.412 188.105 541.888 187.768 540.115 188.01C538.072 188.29 536.046 188.633 533.993 188.864C532.089 189.078 530.184 189.273 528.273 189.422C527.014 189.521 525.115 189.243 523.945 189.665C522.431 190.212 522.873 190.759 522.75 192.216C522.598 194.004 521.693 195.62 520.375 196.812C515.589 201.144 507.439 200.104 505.034 193.746C504.448 192.199 505.226 191.391 505.005 189.997C504.783 188.594 503.478 188.642 502.2 188.547C498.311 188.259 494.372 188.232 490.466 187.963C482.906 187.442 475.119 186.382 467.562 186.562C459.676 186.75 451.739 186.275 443.861 185.847C440.185 185.647 436.377 184.358 432.759 184.636C428.915 184.931 424.834 184.103 420.97 183.702C412.334 182.804 402.694 182.544 394.713 178.956C395.344 187.607 396.392 196.39 389.372 202.843C386.43 205.547 382.734 208.644 378.877 209.796C373.905 211.282 369.139 212.514 364.08 213.617C354.672 215.667 345.325 220.573 336.838 224.981C332.845 227.054 328.161 227.862 323.833 229.024C321.771 229.578 319.449 230.308 317.287 230.231C315.157 230.155 313.678 228.707 311.798 227.843C309.999 232.081 307.569 235.962 305.759 240.145C304.861 242.221 304.153 244.427 303.107 246.435C302.309 247.965 301.018 248.787 300.896 250.561C300.6 254.869 301.388 259.361 301.176 263.717C300.946 268.468 300.208 273.289 299.772 278.045C298.832 288.324 299.271 298.673 298.507 308.965C297.81 318.368 298.245 327.698 297.202 337.109C296.913 339.721 296.592 342.33 296.383 344.951C296.246 346.671 295.294 350.63 296.19 352.171C296.582 352.845 297.524 352.917 298.154 353.255C299.136 353.782 300.03 354.588 300.765 355.427C302.315 357.198 302.685 359.308 303.039 361.564C305.046 360.486 313.458 354.945 312.198 361.013C311.808 362.894 310.101 363.908 308.755 365.109C307.767 365.989 306.826 366.922 305.775 367.729C305.067 368.272 303.566 368.947 303.224 369.835C302.614 371.423 305.767 373.69 307.256 373.672C309.346 373.648 311.956 370.511 313.728 369.511C318.43 366.855 318.005 372.59 316.232 375.082C314.895 376.963 316.026 376.819 317.866 377.201C320.741 377.798 323.397 378.307 326.32 378.672C331.907 379.369 337.404 378.469 342.947 379.759C348.467 381.044 351.749 384.487 352.553 390.167C352.978 393.167 353.377 391.661 355.896 392.365C358.223 393.015 359.536 395.675 360.875 397.479C363.549 401.078 368.547 410.145 364.452 414.389C362.714 416.191 358.492 415.733 356.204 416.041C354.731 416.238 352.959 416.925 351.474 416.57C350.061 416.232 349.122 414.969 348.103 414.042C348.09 419.739 348.055 424.687 343.541 428.799C339.899 432.119 335.029 433.643 330.145 433.307C325.358 432.978 320.443 431.031 317.41 427.183C315.81 425.153 314.67 422.663 314.258 420.105C314.067 418.926 314.012 417.687 314.197 416.503C314.306 415.8 314.976 414.524 314.551 413.844C313.806 412.654 310.157 413.643 308.952 413.765C305.773 414.086 302.602 414.487 299.435 414.911C296.816 415.262 294.145 415.634 291.517 415.138C289.259 414.712 288.396 414.468 288.803 417.14C289.62 422.516 288.259 427.284 283.839 430.59C279.415 433.897 275.332 434.552 269.922 433.681C264.979 432.886 260.458 428.218 259.018 423.575C257.102 417.394 259.078 411.764 263.693 407.545C260.894 406.127 259.037 405.289 258.05 402.014C257.017 398.59 257.982 394.988 258.47 391.555C259.519 384.181 259.11 377.005 259.471 369.607C259.629 366.343 260.303 363.021 260.314 359.765C260.319 357.909 260.217 357.976 258.306 357.961C257.121 357.951 255.865 358.034 255.366 356.653C254.161 353.322 259.813 353.603 261.235 352.277C262.93 350.696 261.759 344.457 261.709 342.262C261.548 335.131 262.254 328.165 262.391 321.054C262.455 317.841 262.65 314.463 262.385 311.262C262.278 309.984 261.547 308.951 261.596 307.68C261.658 306.051 261.972 304.53 261.888 302.835C261.151 287.932 260.989 272.753 262.901 257.948C263.015 257.062 263.642 255.066 263.307 254.175C262.799 252.827 261.187 253.305 260.061 252.811C256.91 251.43 256.131 249.237 255.959 246.027C255.857 244.124 255.756 242.221 255.657 240.318C255.607 239.341 255.557 238.363 255.504 237.386C255.442 236.253 255.908 234.978 255.881 234.027C255.872 233.721 255.741 233.265 255.738 233.084C255.373 232.905 255.231 232.642 255.311 232.294C255.294 231.967 255.347 231.648 255.468 231.338C255.487 231.523 255.248 230.289 255.227 230.398C255.261 230.229 255.879 229.227 255.817 229.106C255.528 228.539 254.916 229.228 254.712 228.172C254.542 227.285 255.119 226.242 254.925 225.203C254.407 222.432 254.896 219.945 255.288 217.141Z" fill="black"/>
<path fill-rule="evenodd" clip-rule="evenodd" d="M101.921 260.656C136.928 260.737 172.017 261.6 206.936 262.634C210.784 262.748 214.644 263.074 218.494 263.238C219.164 263.267 221.367 262.987 221.863 263.704C222.671 264.874 220.822 266.064 219.951 266.598C216.953 268.432 212.986 268.112 209.589 268.228C204.903 268.387 200.214 268.405 195.525 268.34C179.234 268.113 162.936 266.875 146.68 265.912C136.666 265.319 126.621 264.956 116.593 264.661C111.643 264.515 106.69 264.434 101.74 264.271C100.404 264.227 97.9688 264.644 97.9688 262.887C97.9688 261.057 100.639 260.755 101.921 260.656Z" fill="black"/>
<path fill-rule="evenodd" clip-rule="evenodd" d="M143.787 280.347C168.558 281.414 193.347 282.146 218.121 283.135C219.727 283.199 223.146 282.725 223.748 284.696C224.376 286.745 221.764 288.8 220.036 289.331C217.791 290.021 214.934 289.635 212.591 289.701C209.439 289.79 206.443 289.762 203.302 289.55C191.331 288.739 179.38 287.687 167.407 286.874C160.628 286.414 153.855 285.87 147.087 285.286C145.282 285.13 139.921 285.614 138.657 284.143C137.878 283.236 138.704 281.836 139.473 281.137C140.741 279.987 142.198 280.248 143.787 280.347Z" fill="black"/>
<path fill-rule="evenodd" clip-rule="evenodd" d="M216.878 307.428C208.828 307.861 200.688 307.223 192.775 305.894C191.697 305.712 189.205 305.692 188.516 304.691C187.464 303.162 189.441 301.828 190.771 301.693C194.457 301.318 198.84 302.604 202.559 302.831C206.449 303.069 210.393 302.654 214.293 302.623C216.522 302.605 218.751 302.59 220.981 302.582C222.289 302.579 224.169 302.248 225.46 302.544C229.074 303.375 224.479 306.417 222.869 306.768C222.311 306.89 216.896 307.692 216.878 307.428Z" fill="black"/>
<path fill-rule="evenodd" clip-rule="evenodd" d="M392.547 114.309C392.601 113.365 392.355 110.977 393.524 110.53C395.804 109.657 395.653 115.253 396.541 116.041C399.802 118.929 398.923 107.8 402.031 111.389C404.555 114.306 402.527 121.333 398.976 122.644C396.359 123.61 394.579 121.752 393.562 119.6C393.539 119.55 392.125 114.287 392.547 114.309Z" fill="black"/>
<path fill-rule="evenodd" clip-rule="evenodd" d="M395.5 101.567C397.073 101.267 399.122 102.902 398.158 104.485C397.453 105.643 392.677 107.438 391.383 107.468C389.795 107.506 389.93 106.242 390.437 104.956C391.231 102.942 393.348 101.544 395.5 101.567Z" fill="black"/>
<path fill-rule="evenodd" clip-rule="evenodd" d="M108.656 76.209C109.14 74.1952 109.854 71.8092 112.237 73.7505C113.838 75.0548 115.008 78.271 115.169 80.2827C115.361 82.6914 114.039 83.9165 111.902 82.5652C109.733 81.1943 108.906 78.6664 108.656 76.209Z" fill="black"/>
<path fill-rule="evenodd" clip-rule="evenodd" d="M57 101.533C56.2246 106.918 51.4481 101.906 51.6633 98.6215C51.775 96.9118 52.7541 95.5104 54.6137 96.5359C56.2785 97.4548 56.858 99.8699 57 101.533Z" fill="black"/>
<path fill-rule="evenodd" clip-rule="evenodd" d="M328.938 416.272C329.293 414.934 329.371 412.183 330.917 411.596C333.205 410.728 334.198 414.531 334.274 416.061C334.356 417.72 333.777 421.244 331.402 420.952C329.455 420.712 329.326 417.724 328.938 416.272Z" fill="black"/>
<path fill-rule="evenodd" clip-rule="evenodd" d="M271.344 418.405C271.781 416.768 271.866 413.812 273.833 413.316C275.997 412.771 276.661 415.722 276.687 417.391C276.712 418.95 275.839 422.989 273.632 422.739C271.933 422.546 271.707 419.728 271.344 418.405Z" fill="black"/>
</svg>
